<svg width="92" height="81.28203230275508" version="1.1"><g id="_unnamed_" transform="translate(46,20.32050807568877) scale(1,1) rotate(0)"><g id="_unnamed_" transform="translate(0,40.64101615137754) scale(1,1) rotate(0)"><rect id="_unnamed_" rx="0" ry="0" width="0" height="0" x="0" y="0" fill="none" fill-opacity="0" stroke="none" stroke-opacity="0" stroke-width="0" stroke-linecap="butt" stroke-linejoin="miter" opacity="1" transform="translate(0,20.32050807568877) scale(1,1) rotate(0)" stroke-dashoffset="0" stroke-dasharray=""></rect><g id="_unnamed_" transform="translate(-23,0) scale(1,1) rotate(0)"><g id="_unnamed_" transform="translate(46,0) scale(1,1) rotate(0)"><rect id="_unnamed_" rx="0" ry="0" width="0" height="0" x="0" y="0" fill="none" fill-opacity="0" stroke="none" stroke-opacity="0" stroke-width="0" stroke-linecap="butt" stroke-linejoin="miter" opacity="1" transform="translate(23,0) scale(1,1) rotate(0)" stroke-dashoffset="0" stroke-dasharray=""></rect><polygon id="_unnamed_" points="-20,17.32050807568877 20,17.32050807568877 0,-17.32050807568877" fill="rgba(45.64%,93.17%,32.32%,1)" fill-opacity="1" stroke="rgba(52.94%,42.19%,12.55%,1)" stroke-opacity="1" stroke-width="6" stroke-linecap="butt" stroke-linejoin="miter" opacity="1" transform="translate(0,0) scale(1,1) rotate(0)" stroke-dashoffset="0" stroke-dasharray=""></polygon></g><polygon id="_unnamed_" points="-20,17.32050807568877 20,17.32050807568877 0,-17.32050807568877" fill="rgba(62.88%,93.17%,32.32%,1)" fill-opacity="1" stroke="rgba(52.94%,30.75%,12.55%,1)" stroke-opacity="1" stroke-width="6" stroke-linecap="butt" stroke-linejoin="miter" opacity="1" transform="translate(0,0) scale(1,1) rotate(0)" stroke-dashoffset="0" stroke-dasharray=""></polygon></g></g><polygon id="_unnamed_" points="-20,17.32050807568877 20,17.32050807568877 0,-17.32050807568877" fill="rgba(71.23%,32.32%,93.17%,1)" fill-opacity="1" stroke="rgba(12.55%,29.02%,52.94%,1)" stroke-opacity="1" stroke-width="6" stroke-linecap="butt" stroke-linejoin="miter" opacity="1" transform="translate(0,0) scale(1,1) rotate(0)" stroke-dashoffset="0" stroke-dasharray=""></polygon></g></svg>
