<svg width="80" height="117" version="1.1"><g id="_unnamed_" transform="translate(40,31) scale(1,1) rotate(0)"><g id="_unnamed_" transform="translate(0,42) scale(1,1) rotate(0)"><g id="_unnamed_" transform="translate(0,31.5) scale(1,1) rotate(0)"><rect id="_unnamed_" rx="0" ry="0" width="0" height="0" x="0" y="0" fill="none" fill-opacity="0" stroke="none" stroke-opacity="0" stroke-width="0" stroke-linecap="butt" stroke-linejoin="miter" opacity="1" transform="translate(0,12.5) scale(1,1) rotate(0)" stroke-dashoffset="0" stroke-dasharray=""></rect><rect id="_unnamed_" rx="0" ry="0" width="80" height="25" x="-40" y="-12.5" fill="rgba(45.1%,82.35%,8.63%,1)" fill-opacity="1" stroke="none" stroke-opacity="0" stroke-width="0" stroke-linecap="butt" stroke-linejoin="miter" opacity="1" transform="translate(0,0) scale(1,1) rotate(0)" stroke-dashoffset="0" stroke-dasharray=""></rect></g><g id="_unnamed_" transform="translate(0,0) scale(1,1) rotate(0)"><g id="_unnamed_" transform="translate(0,15) scale(1,1) rotate(0)"><rect id="_unnamed_" rx="0" ry="0" width="0" height="0" x="0" y="0" fill="none" fill-opacity="0" stroke="none" stroke-opacity="0" stroke-width="0" stroke-linecap="butt" stroke-linejoin="miter" opacity="1" transform="translate(0,4) scale(1,1) rotate(0)" stroke-dashoffset="0" stroke-dasharray=""></rect><rect id="_unnamed_" rx="0" ry="0" width="20" height="6" x="-10" y="-3" fill="rgba(75.69%,49.02%,6.67%,1)" fill-opacity="1" stroke="rgba(0%,0%,0%,1)" stroke-opacity="1" stroke-width="2" stroke-linecap="butt" stroke-linejoin="miter" opacity="1" transform="translate(0,0) scale(1,1) rotate(0)" stroke-dashoffset="0" stroke-dasharray=""></rect></g><rect id="_unnamed_" rx="0" ry="0" width="6" height="20" x="-3" y="-10" fill="none" fill-opacity="0" stroke="rgba(0%,0%,0%,1)" stroke-opacity="1" stroke-width="2" stroke-linecap="butt" stroke-linejoin="miter" opacity="1" transform="translate(0,0) scale(1,1) rotate(0)" stroke-dashoffset="0" stroke-dasharray=""></rect></g></g><g id="_unnamed_" transform="translate(0,0) scale(1,1) rotate(0)"><circle id="_unnamed_" r="30" fill="rgba(80%,0%,0%,1)" fill-opacity="1" stroke="rgba(0%,0%,0%,1)" stroke-opacity="1" stroke-width="2" stroke-linecap="butt" stroke-linejoin="miter" opacity="1" transform="translate(0,0) scale(1,1) rotate(0)" stroke-dashoffset="0" stroke-dasharray=""></circle><circle id="_unnamed_" r="20" fill="rgba(100%,100%,100%,1)" fill-opacity="1" stroke="rgba(0%,0%,0%,1)" stroke-opacity="1" stroke-width="2" stroke-linecap="butt" stroke-linejoin="miter" opacity="1" transform="translate(0,0) scale(1,1) rotate(0)" stroke-dashoffset="0" stroke-dasharray=""></circle><circle id="_unnamed_" r="10" fill="rgba(80%,0%,0%,1)" fill-opacity="1" stroke="rgba(0%,0%,0%,1)" stroke-opacity="1" stroke-width="2" stroke-linecap="butt" stroke-linejoin="miter" opacity="1" transform="translate(0,0) scale(1,1) rotate(0)" stroke-dashoffset="0" stroke-dasharray=""></circle></g></g></svg>
