<svg width="62" height="92" version="1.1"><g id="_unnamed_" transform="translate(31,31) scale(1,1) rotate(0)"><g id="_unnamed_" transform="translate(0,42) scale(1,1) rotate(0)"><g id="_unnamed_" transform="translate(0,15) scale(1,1) rotate(0)"><rect id="_unnamed_" rx="0" ry="0" width="0" height="0" x="0" y="0" fill="none" fill-opacity="0" stroke="none" stroke-opacity="0" stroke-width="0" stroke-linecap="butt" stroke-linejoin="miter" opacity="1" transform="translate(0,4) scale(1,1) rotate(0)" stroke-dashoffset="0" stroke-dasharray=""></rect><rect id="_unnamed_" rx="0" ry="0" width="20" height="6" x="-10" y="-3" fill="none" fill-opacity="0" stroke="rgba(0%,0%,0%,1)" stroke-opacity="1" stroke-width="2" stroke-linecap="butt" stroke-linejoin="miter" opacity="1" transform="translate(0,0) scale(1,1) rotate(0)" stroke-dashoffset="0" stroke-dasharray=""></rect></g><rect id="_unnamed_" rx="0" ry="0" width="6" height="20" x="-3" y="-10" fill="none" fill-opacity="0" stroke="rgba(0%,0%,0%,1)" stroke-opacity="1" stroke-width="2" stroke-linecap="butt" stroke-linejoin="miter" opacity="1" transform="translate(0,0) scale(1,1) rotate(0)" stroke-dashoffset="0" stroke-dasharray=""></rect></g><g id="_unnamed_" transform="translate(0,0) scale(1,1) rotate(0)"><circle id="_unnamed_" r="30" fill="none" fill-opacity="0" stroke="rgba(0%,0%,0%,1)" stroke-opacity="1" stroke-width="2" stroke-linecap="butt" stroke-linejoin="miter" opacity="1" transform="translate(0,0) scale(1,1) rotate(0)" stroke-dashoffset="0" stroke-dasharray=""></circle><circle id="_unnamed_" r="20" fill="none" fill-opacity="0" stroke="rgba(0%,0%,0%,1)" stroke-opacity="1" stroke-width="2" stroke-linecap="butt" stroke-linejoin="miter" opacity="1" transform="translate(0,0) scale(1,1) rotate(0)" stroke-dashoffset="0" stroke-dasharray=""></circle><circle id="_unnamed_" r="10" fill="none" fill-opacity="0" stroke="rgba(0%,0%,0%,1)" stroke-opacity="1" stroke-width="2" stroke-linecap="butt" stroke-linejoin="miter" opacity="1" transform="translate(0,0) scale(1,1) rotate(0)" stroke-dashoffset="0" stroke-dasharray=""></circle></g></g></svg>
