<svg width="210" height="42" version="1.1"><g id="_unnamed_" transform="translate(21,21) scale(1,1) rotate(0)"><g id="_unnamed_" transform="translate(42,0) scale(1,1) rotate(0)"><g id="_unnamed_" transform="translate(42,0) scale(1,1) rotate(0)"><g id="_unnamed_" transform="translate(42,0) scale(1,1) rotate(0)"><g id="_unnamed_" transform="translate(42,0) scale(1,1) rotate(0)"><rect id="_unnamed_" rx="0" ry="0" width="0" height="0" x="0" y="0" fill="none" fill-opacity="0" stroke="none" stroke-opacity="0" stroke-width="0" stroke-linecap="butt" stroke-linejoin="miter" opacity="1" transform="translate(21,0) scale(1,1) rotate(0)" stroke-dashoffset="0" stroke-dasharray=""></rect><rect id="_unnamed_" rx="0" ry="0" width="40" height="40" x="-20" y="-20" fill="rgba(81.18%,68.69%,44.71%,1)" fill-opacity="1" stroke="rgba(12.55%,29.02%,52.94%,1)" stroke-opacity="1" stroke-width="2" stroke-linecap="butt" stroke-linejoin="miter" opacity="1" transform="translate(0,0) scale(1,1) rotate(0)" stroke-dashoffset="0" stroke-dasharray=""></rect></g><rect id="_unnamed_" rx="0" ry="0" width="40" height="40" x="-20" y="-20" fill="rgba(81.18%,68.69%,44.71%,1)" fill-opacity="1" stroke="rgba(12.55%,29.02%,52.94%,1)" stroke-opacity="1" stroke-width="2" stroke-linecap="butt" stroke-linejoin="miter" opacity="1" transform="translate(0,0) scale(1,1) rotate(0)" stroke-dashoffset="0" stroke-dasharray=""></rect></g><rect id="_unnamed_" rx="0" ry="0" width="40" height="40" x="-20" y="-20" fill="rgba(81.18%,68.69%,44.71%,1)" fill-opacity="1" stroke="rgba(12.55%,29.02%,52.94%,1)" stroke-opacity="1" stroke-width="2" stroke-linecap="butt" stroke-linejoin="miter" opacity="1" transform="translate(0,0) scale(1,1) rotate(0)" stroke-dashoffset="0" stroke-dasharray=""></rect></g><rect id="_unnamed_" rx="0" ry="0" width="40" height="40" x="-20" y="-20" fill="rgba(81.18%,68.69%,44.71%,1)" fill-opacity="1" stroke="rgba(12.55%,29.02%,52.94%,1)" stroke-opacity="1" stroke-width="2" stroke-linecap="butt" stroke-linejoin="miter" opacity="1" transform="translate(0,0) scale(1,1) rotate(0)" stroke-dashoffset="0" stroke-dasharray=""></rect></g><rect id="_unnamed_" rx="0" ry="0" width="40" height="40" x="-20" y="-20" fill="rgba(81.18%,68.69%,44.71%,1)" fill-opacity="1" stroke="rgba(12.55%,29.02%,52.94%,1)" stroke-opacity="1" stroke-width="2" stroke-linecap="butt" stroke-linejoin="miter" opacity="1" transform="translate(0,0) scale(1,1) rotate(0)" stroke-dashoffset="0" stroke-dasharray=""></rect></g></svg>
