<svg width="300" height="60" version="1.1"><g id="_unnamed_" transform="translate(30,30) scale(1,1) rotate(0)"><g id="_unnamed_" transform="translate(60,0) scale(1,1) rotate(0)"><rect id="_unnamed_" rx="0" ry="0" width="0" height="0" x="0" y="0" fill="none" fill-opacity="0" stroke="none" stroke-opacity="0" stroke-width="0" stroke-linecap="butt" stroke-linejoin="miter" opacity="1" transform="translate(210,0) scale(1,1) rotate(0)" stroke-dashoffset="0" stroke-dasharray=""></rect><g id="_unnamed_" transform="translate(0,0) scale(1,1) rotate(0)"><g id="_unnamed_" transform="translate(60,0) scale(1,1) rotate(0)"><rect id="_unnamed_" rx="0" ry="0" width="0" height="0" x="0" y="0" fill="none" fill-opacity="0" stroke="none" stroke-opacity="0" stroke-width="0" stroke-linecap="butt" stroke-linejoin="miter" opacity="1" transform="translate(150,0) scale(1,1) rotate(0)" stroke-dashoffset="0" stroke-dasharray=""></rect><g id="_unnamed_" transform="translate(0,0) scale(1,1) rotate(0)"><g id="_unnamed_" transform="translate(60,0) scale(1,1) rotate(0)"><rect id="_unnamed_" rx="0" ry="0" width="0" height="0" x="0" y="0" fill="none" fill-opacity="0" stroke="none" stroke-opacity="0" stroke-width="0" stroke-linecap="butt" stroke-linejoin="miter" opacity="1" transform="translate(90,0) scale(1,1) rotate(0)" stroke-dashoffset="0" stroke-dasharray=""></rect><g id="_unnamed_" transform="translate(0,0) scale(1,1) rotate(0)"><g id="_unnamed_" transform="translate(60,0) scale(1,1) rotate(0)"><rect id="_unnamed_" rx="0" ry="0" width="0" height="0" x="0" y="0" fill="none" fill-opacity="0" stroke="none" stroke-opacity="0" stroke-width="0" stroke-linecap="butt" stroke-linejoin="miter" opacity="1" transform="translate(30,0) scale(1,1) rotate(0)" stroke-dashoffset="0" stroke-dasharray=""></rect><g id="_unnamed_" transform="translate(0,0) scale(1,1) rotate(0)"><g id="_unnamed_" transform="translate(30,0) scale(1,1) rotate(0)"><rect id="_unnamed_" rx="0" ry="0" width="0" height="0" x="0" y="0" fill="none" fill-opacity="0" stroke="none" stroke-opacity="0" stroke-width="0" stroke-linecap="butt" stroke-linejoin="miter" opacity="1" transform="translate(0,0) scale(1,1) rotate(0)" stroke-dashoffset="0" stroke-dasharray=""></rect><rect id="_unnamed_" rx="0" ry="0" width="0" height="0" x="0" y="0" fill="none" fill-opacity="0" stroke="none" stroke-opacity="0" stroke-width="0" stroke-linecap="butt" stroke-linejoin="miter" opacity="1" transform="translate(0,0) scale(1,1) rotate(0)" stroke-dashoffset="0" stroke-dasharray=""></rect></g><rect id="_unnamed_" rx="0" ry="0" width="60" height="60" x="-30" y="-30" fill="rgba(20.39%,27.17%,64.31%,1)" fill-opacity="1" stroke="none" stroke-opacity="0" stroke-width="0" stroke-linecap="butt" stroke-linejoin="miter" opacity="1" transform="translate(0,0) scale(1,1) rotate(0)" stroke-dashoffset="0" stroke-dasharray=""></rect></g></g><rect id="_unnamed_" rx="0" ry="0" width="60" height="60" x="-30" y="-30" fill="rgba(20.39%,64.31%,32.47%,1)" fill-opacity="1" stroke="none" stroke-opacity="0" stroke-width="0" stroke-linecap="butt" stroke-linejoin="miter" opacity="1" transform="translate(0,0) scale(1,1) rotate(0)" stroke-dashoffset="0" stroke-dasharray=""></rect></g></g><rect id="_unnamed_" rx="0" ry="0" width="60" height="60" x="-30" y="-30" fill="rgba(64.31%,51.32%,20.39%,1)" fill-opacity="1" stroke="none" stroke-opacity="0" stroke-width="0" stroke-linecap="butt" stroke-linejoin="miter" opacity="1" transform="translate(0,0) scale(1,1) rotate(0)" stroke-dashoffset="0" stroke-dasharray=""></rect></g></g><rect id="_unnamed_" rx="0" ry="0" width="60" height="60" x="-30" y="-30" fill="rgba(64.31%,20.39%,58.46%,1)" fill-opacity="1" stroke="none" stroke-opacity="0" stroke-width="0" stroke-linecap="butt" stroke-linejoin="miter" opacity="1" transform="translate(0,0) scale(1,1) rotate(0)" stroke-dashoffset="0" stroke-dasharray=""></rect></g></g><rect id="_unnamed_" rx="0" ry="0" width="60" height="60" x="-30" y="-30" fill="rgba(20.39%,39.61%,64.31%,1)" fill-opacity="1" stroke="none" stroke-opacity="0" stroke-width="0" stroke-linecap="butt" stroke-linejoin="miter" opacity="1" transform="translate(0,0) scale(1,1) rotate(0)" stroke-dashoffset="0" stroke-dasharray=""></rect></g></svg>
