<svg width="736" height="368" version="1.1"><g id="_unnamed_" transform="translate(184,184) scale(1,1) rotate(0)"><g id="_unnamed_" transform="translate(368,0) scale(1,1) rotate(0)"><rect id="_unnamed_" rx="0" ry="0" width="0" height="0" x="0" y="0" fill="none" fill-opacity="0" stroke="none" stroke-opacity="0" stroke-width="0" stroke-linecap="butt" stroke-linejoin="miter" opacity="1" transform="translate(184,0) scale(1,1) rotate(0)" stroke-dashoffset="0" stroke-dasharray=""></rect><g id="_unnamed_" transform="translate(0,0) scale(1,1) rotate(0)"><g id="_unnamed_" transform="translate(0,0) scale(1,1) rotate(0)"><g id="_unnamed_" transform="translate(0,0) scale(1,1) rotate(0)"><g id="_unnamed_" transform="translate(0,0) scale(1,1) rotate(0)"><g id="_unnamed_" transform="translate(0,0) scale(1,1) rotate(0)"><g id="_unnamed_" transform="translate(0,0) scale(1,1) rotate(0)"><g id="_unnamed_" transform="translate(0,0) scale(1,1) rotate(0)"><g id="_unnamed_" transform="translate(0,0) scale(1,1) rotate(0)"><g id="_unnamed_" transform="translate(0,0) scale(1,1) rotate(0)"><g id="_unnamed_" transform="translate(0,0) scale(1,1) rotate(0)"><g id="_unnamed_" transform="translate(0,0) scale(1,1) rotate(0)"><g id="_unnamed_" transform="translate(0,0) scale(1,1) rotate(0)"><g id="_unnamed_" transform="translate(0,0) scale(1,1) rotate(0)"><g id="_unnamed_" transform="translate(0,0) scale(1,1) rotate(0)"><g id="_unnamed_" transform="translate(0,0) scale(1,1) rotate(0)"><g id="_unnamed_" transform="translate(0,0) scale(1,1) rotate(0)"><g id="_unnamed_" transform="translate(0,0) scale(1,1) rotate(0)"><g id="_unnamed_" transform="translate(0,0) scale(1,1) rotate(0)"><g id="_unnamed_" transform="translate(0,0) scale(1,1) rotate(0)"><g id="_unnamed_" transform="translate(0,0) scale(1,1) rotate(0)"><rect id="_unnamed_" rx="0" ry="0" width="0" height="0" x="0" y="0" fill="none" fill-opacity="0" stroke="none" stroke-opacity="0" stroke-width="0" stroke-linecap="butt" stroke-linejoin="miter" opacity="1" transform="translate(0,0) scale(1,1) rotate(0)" stroke-dashoffset="0" stroke-dasharray=""></rect><circle id="_unnamed_" r="183" fill="none" fill-opacity="0" stroke="rgba(44.71%,68%,81.18%,1)" stroke-opacity="1" stroke-width="2" stroke-linecap="butt" stroke-linejoin="miter" opacity="1" transform="translate(0,0) scale(1,1) rotate(0)" stroke-dashoffset="0" stroke-dasharray=""></circle></g><circle id="_unnamed_" r="176" fill="none" fill-opacity="0" stroke="rgba(52.35%,81.18%,44.71%,1)" stroke-opacity="1" stroke-width="2" stroke-linecap="butt" stroke-linejoin="miter" opacity="1" transform="translate(0,0) scale(1,1) rotate(0)" stroke-dashoffset="0" stroke-dasharray=""></circle></g><circle id="_unnamed_" r="169" fill="none" fill-opacity="0" stroke="rgba(81.18%,52.72%,44.71%,1)" stroke-opacity="1" stroke-width="2" stroke-linecap="butt" stroke-linejoin="miter" opacity="1" transform="translate(0,0) scale(1,1) rotate(0)" stroke-dashoffset="0" stroke-dasharray=""></circle></g><circle id="_unnamed_" r="162" fill="none" fill-opacity="0" stroke="rgba(68.37%,44.71%,81.18%,1)" stroke-opacity="1" stroke-width="2" stroke-linecap="butt" stroke-linejoin="miter" opacity="1" transform="translate(0,0) scale(1,1) rotate(0)" stroke-dashoffset="0" stroke-dasharray=""></circle></g><circle id="_unnamed_" r="155" fill="none" fill-opacity="0" stroke="rgba(44.71%,78.33%,81.18%,1)" stroke-opacity="1" stroke-width="2" stroke-linecap="butt" stroke-linejoin="miter" opacity="1" transform="translate(0,0) scale(1,1) rotate(0)" stroke-dashoffset="0" stroke-dasharray=""></circle></g><circle id="_unnamed_" r="148" fill="none" fill-opacity="0" stroke="rgba(62.68%,81.18%,44.71%,1)" stroke-opacity="1" stroke-width="2" stroke-linecap="butt" stroke-linejoin="miter" opacity="1" transform="translate(0,0) scale(1,1) rotate(0)" stroke-dashoffset="0" stroke-dasharray=""></circle></g><circle id="_unnamed_" r="141" fill="none" fill-opacity="0" stroke="rgba(81.18%,44.71%,47.02%,1)" stroke-opacity="1" stroke-width="2" stroke-linecap="butt" stroke-linejoin="miter" opacity="1" transform="translate(0,0) scale(1,1) rotate(0)" stroke-dashoffset="0" stroke-dasharray=""></circle></g><circle id="_unnamed_" r="134" fill="none" fill-opacity="0" stroke="rgba(58.04%,44.71%,81.18%,1)" stroke-opacity="1" stroke-width="2" stroke-linecap="butt" stroke-linejoin="miter" opacity="1" transform="translate(0,0) scale(1,1) rotate(0)" stroke-dashoffset="0" stroke-dasharray=""></circle></g><circle id="_unnamed_" r="127" fill="none" fill-opacity="0" stroke="rgba(44.71%,81.18%,73.7%,1)" stroke-opacity="1" stroke-width="2" stroke-linecap="butt" stroke-linejoin="miter" opacity="1" transform="translate(0,0) scale(1,1) rotate(0)" stroke-dashoffset="0" stroke-dasharray=""></circle></g><circle id="_unnamed_" r="120" fill="none" fill-opacity="0" stroke="rgba(73%,81.18%,44.71%,1)" stroke-opacity="1" stroke-width="2" stroke-linecap="butt" stroke-linejoin="miter" opacity="1" transform="translate(0,0) scale(1,1) rotate(0)" stroke-dashoffset="0" stroke-dasharray=""></circle></g><circle id="_unnamed_" r="113" fill="none" fill-opacity="0" stroke="rgba(81.18%,44.71%,57.35%,1)" stroke-opacity="1" stroke-width="2" stroke-linecap="butt" stroke-linejoin="miter" opacity="1" transform="translate(0,0) scale(1,1) rotate(0)" stroke-dashoffset="0" stroke-dasharray=""></circle></g><circle id="_unnamed_" r="106" fill="none" fill-opacity="0" stroke="rgba(47.71%,44.71%,81.18%,1)" stroke-opacity="1" stroke-width="2" stroke-linecap="butt" stroke-linejoin="miter" opacity="1" transform="translate(0,0) scale(1,1) rotate(0)" stroke-dashoffset="0" stroke-dasharray=""></circle></g><circle id="_unnamed_" r="99" fill="none" fill-opacity="0" stroke="rgba(44.71%,81.18%,63.37%,1)" stroke-opacity="1" stroke-width="2" stroke-linecap="butt" stroke-linejoin="miter" opacity="1" transform="translate(0,0) scale(1,1) rotate(0)" stroke-dashoffset="0" stroke-dasharray=""></circle></g><circle id="_unnamed_" r="92" fill="none" fill-opacity="0" stroke="rgba(81.18%,79.02%,44.71%,1)" stroke-opacity="1" stroke-width="2" stroke-linecap="butt" stroke-linejoin="miter" opacity="1" transform="translate(0,0) scale(1,1) rotate(0)" stroke-dashoffset="0" stroke-dasharray=""></circle></g><circle id="_unnamed_" r="85" fill="none" fill-opacity="0" stroke="rgba(81.18%,44.71%,67.68%,1)" stroke-opacity="1" stroke-width="2" stroke-linecap="butt" stroke-linejoin="miter" opacity="1" transform="translate(0,0) scale(1,1) rotate(0)" stroke-dashoffset="0" stroke-dasharray=""></circle></g><circle id="_unnamed_" r="78" fill="none" fill-opacity="0" stroke="rgba(44.71%,52.03%,81.18%,1)" stroke-opacity="1" stroke-width="2" stroke-linecap="butt" stroke-linejoin="miter" opacity="1" transform="translate(0,0) scale(1,1) rotate(0)" stroke-dashoffset="0" stroke-dasharray=""></circle></g><circle id="_unnamed_" r="71" fill="none" fill-opacity="0" stroke="rgba(44.71%,81.18%,53.04%,1)" stroke-opacity="1" stroke-width="2" stroke-linecap="butt" stroke-linejoin="miter" opacity="1" transform="translate(0,0) scale(1,1) rotate(0)" stroke-dashoffset="0" stroke-dasharray=""></circle></g><circle id="_unnamed_" r="64" fill="none" fill-opacity="0" stroke="rgba(81.18%,68.69%,44.71%,1)" stroke-opacity="1" stroke-width="2" stroke-linecap="butt" stroke-linejoin="miter" opacity="1" transform="translate(0,0) scale(1,1) rotate(0)" stroke-dashoffset="0" stroke-dasharray=""></circle></g><circle id="_unnamed_" r="57" fill="none" fill-opacity="0" stroke="rgba(81.18%,44.71%,78.01%,1)" stroke-opacity="1" stroke-width="2" stroke-linecap="butt" stroke-linejoin="miter" opacity="1" transform="translate(0,0) scale(1,1) rotate(0)" stroke-dashoffset="0" stroke-dasharray=""></circle></g><circle id="_unnamed_" r="50" fill="none" fill-opacity="0" stroke="rgba(44.71%,62.35%,81.18%,1)" stroke-opacity="1" stroke-width="2" stroke-linecap="butt" stroke-linejoin="miter" opacity="1" transform="translate(0,0) scale(1,1) rotate(0)" stroke-dashoffset="0" stroke-dasharray=""></circle></g></g><g id="_unnamed_" transform="translate(0,0) scale(1,1) rotate(0)"><g id="_unnamed_" transform="translate(0,0) scale(1,1) rotate(0)"><g id="_unnamed_" transform="translate(0,0) scale(1,1) rotate(0)"><g id="_unnamed_" transform="translate(0,0) scale(1,1) rotate(0)"><g id="_unnamed_" transform="translate(0,0) scale(1,1) rotate(0)"><g id="_unnamed_" transform="translate(0,0) scale(1,1) rotate(0)"><g id="_unnamed_" transform="translate(0,0) scale(1,1) rotate(0)"><g id="_unnamed_" transform="translate(0,0) scale(1,1) rotate(0)"><g id="_unnamed_" transform="translate(0,0) scale(1,1) rotate(0)"><g id="_unnamed_" transform="translate(0,0) scale(1,1) rotate(0)"><g id="_unnamed_" transform="translate(0,0) scale(1,1) rotate(0)"><g id="_unnamed_" transform="translate(0,0) scale(1,1) rotate(0)"><g id="_unnamed_" transform="translate(0,0) scale(1,1) rotate(0)"><g id="_unnamed_" transform="translate(0,0) scale(1,1) rotate(0)"><g id="_unnamed_" transform="translate(0,0) scale(1,1) rotate(0)"><g id="_unnamed_" transform="translate(0,0) scale(1,1) rotate(0)"><g id="_unnamed_" transform="translate(0,0) scale(1,1) rotate(0)"><g id="_unnamed_" transform="translate(0,0) scale(1,1) rotate(0)"><g id="_unnamed_" transform="translate(0,0) scale(1,1) rotate(0)"><g id="_unnamed_" transform="translate(0,0) scale(1,1) rotate(0)"><rect id="_unnamed_" rx="0" ry="0" width="0" height="0" x="0" y="0" fill="none" fill-opacity="0" stroke="none" stroke-opacity="0" stroke-width="0" stroke-linecap="butt" stroke-linejoin="miter" opacity="1" transform="translate(0,0) scale(1,1) rotate(0)" stroke-dashoffset="0" stroke-dasharray=""></rect><circle id="_unnamed_" r="183" fill="none" fill-opacity="0" stroke="rgba(80%,0%,0%,1)" stroke-opacity="0.37735360253530714" stroke-width="2" stroke-linecap="butt" stroke-linejoin="miter" opacity="1" transform="translate(0,0) scale(1,1) rotate(0)" stroke-dashoffset="0" stroke-dasharray=""></circle></g><circle id="_unnamed_" r="176" fill="none" fill-opacity="0" stroke="rgba(80%,0%,0%,1)" stroke-opacity="0.3972143184582181" stroke-width="2" stroke-linecap="butt" stroke-linejoin="miter" opacity="1" transform="translate(0,0) scale(1,1) rotate(0)" stroke-dashoffset="0" stroke-dasharray=""></circle></g><circle id="_unnamed_" r="169" fill="none" fill-opacity="0" stroke="rgba(80%,0%,0%,1)" stroke-opacity="0.41812033521917696" stroke-width="2" stroke-linecap="butt" stroke-linejoin="miter" opacity="1" transform="translate(0,0) scale(1,1) rotate(0)" stroke-dashoffset="0" stroke-dasharray=""></circle></g><circle id="_unnamed_" r="162" fill="none" fill-opacity="0" stroke="rgba(80%,0%,0%,1)" stroke-opacity="0.44012666865176525" stroke-width="2" stroke-linecap="butt" stroke-linejoin="miter" opacity="1" transform="translate(0,0) scale(1,1) rotate(0)" stroke-dashoffset="0" stroke-dasharray=""></circle></g><circle id="_unnamed_" r="155" fill="none" fill-opacity="0" stroke="rgba(80%,0%,0%,1)" stroke-opacity="0.46329123015975293" stroke-width="2" stroke-linecap="butt" stroke-linejoin="miter" opacity="1" transform="translate(0,0) scale(1,1) rotate(0)" stroke-dashoffset="0" stroke-dasharray=""></circle></g><circle id="_unnamed_" r="148" fill="none" fill-opacity="0" stroke="rgba(80%,0%,0%,1)" stroke-opacity="0.48767497911552943" stroke-width="2" stroke-linecap="butt" stroke-linejoin="miter" opacity="1" transform="translate(0,0) scale(1,1) rotate(0)" stroke-dashoffset="0" stroke-dasharray=""></circle></g><circle id="_unnamed_" r="141" fill="none" fill-opacity="0" stroke="rgba(80%,0%,0%,1)" stroke-opacity="0.5133420832795047" stroke-width="2" stroke-linecap="butt" stroke-linejoin="miter" opacity="1" transform="translate(0,0) scale(1,1) rotate(0)" stroke-dashoffset="0" stroke-dasharray=""></circle></g><circle id="_unnamed_" r="134" fill="none" fill-opacity="0" stroke="rgba(80%,0%,0%,1)" stroke-opacity="0.5403600876626365" stroke-width="2" stroke-linecap="butt" stroke-linejoin="miter" opacity="1" transform="translate(0,0) scale(1,1) rotate(0)" stroke-dashoffset="0" stroke-dasharray=""></circle></g><circle id="_unnamed_" r="127" fill="none" fill-opacity="0" stroke="rgba(80%,0%,0%,1)" stroke-opacity="0.5688000922764596" stroke-width="2" stroke-linecap="butt" stroke-linejoin="miter" opacity="1" transform="translate(0,0) scale(1,1) rotate(0)" stroke-dashoffset="0" stroke-dasharray=""></circle></g><circle id="_unnamed_" r="120" fill="none" fill-opacity="0" stroke="rgba(80%,0%,0%,1)" stroke-opacity="0.5987369392383786" stroke-width="2" stroke-linecap="butt" stroke-linejoin="miter" opacity="1" transform="translate(0,0) scale(1,1) rotate(0)" stroke-dashoffset="0" stroke-dasharray=""></circle></g><circle id="_unnamed_" r="113" fill="none" fill-opacity="0" stroke="rgba(80%,0%,0%,1)" stroke-opacity="0.6302494097246091" stroke-width="2" stroke-linecap="butt" stroke-linejoin="miter" opacity="1" transform="translate(0,0) scale(1,1) rotate(0)" stroke-dashoffset="0" stroke-dasharray=""></circle></g><circle id="_unnamed_" r="106" fill="none" fill-opacity="0" stroke="rgba(80%,0%,0%,1)" stroke-opacity="0.6634204312890623" stroke-width="2" stroke-linecap="butt" stroke-linejoin="miter" opacity="1" transform="translate(0,0) scale(1,1) rotate(0)" stroke-dashoffset="0" stroke-dasharray=""></circle></g><circle id="_unnamed_" r="99" fill="none" fill-opacity="0" stroke="rgba(80%,0%,0%,1)" stroke-opacity="0.6983372960937497" stroke-width="2" stroke-linecap="butt" stroke-linejoin="miter" opacity="1" transform="translate(0,0) scale(1,1) rotate(0)" stroke-dashoffset="0" stroke-dasharray=""></circle></g><circle id="_unnamed_" r="92" fill="none" fill-opacity="0" stroke="rgba(80%,0%,0%,1)" stroke-opacity="0.7350918906249998" stroke-width="2" stroke-linecap="butt" stroke-linejoin="miter" opacity="1" transform="translate(0,0) scale(1,1) rotate(0)" stroke-dashoffset="0" stroke-dasharray=""></circle></g><circle id="_unnamed_" r="85" fill="none" fill-opacity="0" stroke="rgba(80%,0%,0%,1)" stroke-opacity="0.7737809374999999" stroke-width="2" stroke-linecap="butt" stroke-linejoin="miter" opacity="1" transform="translate(0,0) scale(1,1) rotate(0)" stroke-dashoffset="0" stroke-dasharray=""></circle></g><circle id="_unnamed_" r="78" fill="none" fill-opacity="0" stroke="rgba(80%,0%,0%,1)" stroke-opacity="0.8145062499999999" stroke-width="2" stroke-linecap="butt" stroke-linejoin="miter" opacity="1" transform="translate(0,0) scale(1,1) rotate(0)" stroke-dashoffset="0" stroke-dasharray=""></circle></g><circle id="_unnamed_" r="71" fill="none" fill-opacity="0" stroke="rgba(80%,0%,0%,1)" stroke-opacity="0.8573749999999999" stroke-width="2" stroke-linecap="butt" stroke-linejoin="miter" opacity="1" transform="translate(0,0) scale(1,1) rotate(0)" stroke-dashoffset="0" stroke-dasharray=""></circle></g><circle id="_unnamed_" r="64" fill="none" fill-opacity="0" stroke="rgba(80%,0%,0%,1)" stroke-opacity="0.9025" stroke-width="2" stroke-linecap="butt" stroke-linejoin="miter" opacity="1" transform="translate(0,0) scale(1,1) rotate(0)" stroke-dashoffset="0" stroke-dasharray=""></circle></g><circle id="_unnamed_" r="57" fill="none" fill-opacity="0" stroke="rgba(80%,0%,0%,1)" stroke-opacity="0.95" stroke-width="2" stroke-linecap="butt" stroke-linejoin="miter" opacity="1" transform="translate(0,0) scale(1,1) rotate(0)" stroke-dashoffset="0" stroke-dasharray=""></circle></g><circle id="_unnamed_" r="50" fill="none" fill-opacity="0" stroke="rgba(80%,0%,0%,1)" stroke-opacity="1" stroke-width="2" stroke-linecap="butt" stroke-linejoin="miter" opacity="1" transform="translate(0,0) scale(1,1) rotate(0)" stroke-dashoffset="0" stroke-dasharray=""></circle></g></g></svg>
