<svg width="404" height="202" version="1.1"><g id="_unnamed_" transform="translate(101,101) scale(1,1) rotate(0)"><g id="_unnamed_" transform="translate(202,0) scale(1,1) rotate(0)"><rect id="_unnamed_" rx="0" ry="0" width="0" height="0" x="0" y="0" fill="none" fill-opacity="0" stroke="none" stroke-opacity="0" stroke-width="0" stroke-linecap="butt" stroke-linejoin="miter" opacity="1" transform="translate(101,0) scale(1,1) rotate(0)" stroke-dashoffset="0" stroke-dasharray=""></rect><g id="_unnamed_" transform="translate(0,0) scale(1,1) rotate(0)"><g id="_unnamed_" transform="translate(0,0) scale(1,1) rotate(0)"><g id="_unnamed_" transform="translate(0,0) scale(1,1) rotate(0)"><g id="_unnamed_" transform="translate(0,0) scale(1,1) rotate(0)"><g id="_unnamed_" transform="translate(0,0) scale(1,1) rotate(0)"><g id="_unnamed_" transform="translate(0,0) scale(1,1) rotate(0)"><g id="_unnamed_" transform="translate(0,0) scale(1,1) rotate(0)"><g id="_unnamed_" transform="translate(0,0) scale(1,1) rotate(0)"><g id="_unnamed_" transform="translate(0,0) scale(1,1) rotate(0)"><g id="_unnamed_" transform="translate(0,0) scale(1,1) rotate(0)"><rect id="_unnamed_" rx="0" ry="0" width="0" height="0" x="0" y="0" fill="none" fill-opacity="0" stroke="none" stroke-opacity="0" stroke-width="0" stroke-linecap="butt" stroke-linejoin="miter" opacity="1" transform="translate(0,0) scale(1,1) rotate(0)" stroke-dashoffset="0" stroke-dasharray=""></rect><circle id="_unnamed_" r="10" fill="none" fill-opacity="0" stroke="rgba(0%,0%,0%,1)" stroke-opacity="1" stroke-width="2" stroke-linecap="butt" stroke-linejoin="miter" opacity="1" transform="translate(0,0) scale(1,1) rotate(0)" stroke-dashoffset="0" stroke-dasharray=""></circle></g><rect id="_unnamed_" rx="0" ry="0" width="40" height="40" x="-20" y="-20" fill="none" fill-opacity="0" stroke="rgba(0%,0%,0%,1)" stroke-opacity="1" stroke-width="2" stroke-linecap="butt" stroke-linejoin="miter" opacity="1" transform="translate(0,0) scale(1,1) rotate(0)" stroke-dashoffset="0" stroke-dasharray=""></rect></g><circle id="_unnamed_" r="30" fill="none" fill-opacity="0" stroke="rgba(0%,0%,0%,1)" stroke-opacity="1" stroke-width="2" stroke-linecap="butt" stroke-linejoin="miter" opacity="1" transform="translate(0,0) scale(1,1) rotate(0)" stroke-dashoffset="0" stroke-dasharray=""></circle></g><rect id="_unnamed_" rx="0" ry="0" width="80" height="80" x="-40" y="-40" fill="none" fill-opacity="0" stroke="rgba(0%,0%,0%,1)" stroke-opacity="1" stroke-width="2" stroke-linecap="butt" stroke-linejoin="miter" opacity="1" transform="translate(0,0) scale(1,1) rotate(0)" stroke-dashoffset="0" stroke-dasharray=""></rect></g><circle id="_unnamed_" r="50" fill="none" fill-opacity="0" stroke="rgba(0%,0%,0%,1)" stroke-opacity="1" stroke-width="2" stroke-linecap="butt" stroke-linejoin="miter" opacity="1" transform="translate(0,0) scale(1,1) rotate(0)" stroke-dashoffset="0" stroke-dasharray=""></circle></g><rect id="_unnamed_" rx="0" ry="0" width="120" height="120" x="-60" y="-60" fill="none" fill-opacity="0" stroke="rgba(0%,0%,0%,1)" stroke-opacity="1" stroke-width="2" stroke-linecap="butt" stroke-linejoin="miter" opacity="1" transform="translate(0,0) scale(1,1) rotate(0)" stroke-dashoffset="0" stroke-dasharray=""></rect></g><circle id="_unnamed_" r="70" fill="none" fill-opacity="0" stroke="rgba(0%,0%,0%,1)" stroke-opacity="1" stroke-width="2" stroke-linecap="butt" stroke-linejoin="miter" opacity="1" transform="translate(0,0) scale(1,1) rotate(0)" stroke-dashoffset="0" stroke-dasharray=""></circle></g><rect id="_unnamed_" rx="0" ry="0" width="160" height="160" x="-80" y="-80" fill="none" fill-opacity="0" stroke="rgba(0%,0%,0%,1)" stroke-opacity="1" stroke-width="2" stroke-linecap="butt" stroke-linejoin="miter" opacity="1" transform="translate(0,0) scale(1,1) rotate(0)" stroke-dashoffset="0" stroke-dasharray=""></rect></g><circle id="_unnamed_" r="90" fill="none" fill-opacity="0" stroke="rgba(0%,0%,0%,1)" stroke-opacity="1" stroke-width="2" stroke-linecap="butt" stroke-linejoin="miter" opacity="1" transform="translate(0,0) scale(1,1) rotate(0)" stroke-dashoffset="0" stroke-dasharray=""></circle></g><rect id="_unnamed_" rx="0" ry="0" width="200" height="200" x="-100" y="-100" fill="none" fill-opacity="0" stroke="rgba(0%,0%,0%,1)" stroke-opacity="1" stroke-width="2" stroke-linecap="butt" stroke-linejoin="miter" opacity="1" transform="translate(0,0) scale(1,1) rotate(0)" stroke-dashoffset="0" stroke-dasharray=""></rect></g></g><g id="_unnamed_" transform="translate(0,0) scale(1,1) rotate(0)"><g id="_unnamed_" transform="translate(0,0) scale(1,1) rotate(0)"><g id="_unnamed_" transform="translate(0,0) scale(1,1) rotate(0)"><g id="_unnamed_" transform="translate(0,0) scale(1,1) rotate(0)"><g id="_unnamed_" transform="translate(0,0) scale(1,1) rotate(0)"><g id="_unnamed_" transform="translate(0,0) scale(1,1) rotate(0)"><g id="_unnamed_" transform="translate(0,0) scale(1,1) rotate(0)"><g id="_unnamed_" transform="translate(0,0) scale(1,1) rotate(0)"><g id="_unnamed_" transform="translate(0,0) scale(1,1) rotate(0)"><g id="_unnamed_" transform="translate(0,0) scale(1,1) rotate(0)"><rect id="_unnamed_" rx="0" ry="0" width="0" height="0" x="0" y="0" fill="none" fill-opacity="0" stroke="none" stroke-opacity="0" stroke-width="0" stroke-linecap="butt" stroke-linejoin="miter" opacity="1" transform="translate(0,0) scale(1,1) rotate(0)" stroke-dashoffset="0" stroke-dasharray=""></rect><circle id="_unnamed_" r="10" fill="none" fill-opacity="0" stroke="rgba(0%,0%,0%,1)" stroke-opacity="1" stroke-width="2" stroke-linecap="butt" stroke-linejoin="miter" opacity="1" transform="translate(0,0) scale(1,1) rotate(0)" stroke-dashoffset="0" stroke-dasharray=""></circle></g><circle id="_unnamed_" r="20" fill="none" fill-opacity="0" stroke="rgba(0%,0%,0%,1)" stroke-opacity="1" stroke-width="2" stroke-linecap="butt" stroke-linejoin="miter" opacity="1" transform="translate(0,0) scale(1,1) rotate(0)" stroke-dashoffset="0" stroke-dasharray=""></circle></g><circle id="_unnamed_" r="30" fill="none" fill-opacity="0" stroke="rgba(0%,0%,0%,1)" stroke-opacity="1" stroke-width="2" stroke-linecap="butt" stroke-linejoin="miter" opacity="1" transform="translate(0,0) scale(1,1) rotate(0)" stroke-dashoffset="0" stroke-dasharray=""></circle></g><circle id="_unnamed_" r="40" fill="none" fill-opacity="0" stroke="rgba(0%,0%,0%,1)" stroke-opacity="1" stroke-width="2" stroke-linecap="butt" stroke-linejoin="miter" opacity="1" transform="translate(0,0) scale(1,1) rotate(0)" stroke-dashoffset="0" stroke-dasharray=""></circle></g><circle id="_unnamed_" r="50" fill="none" fill-opacity="0" stroke="rgba(0%,0%,0%,1)" stroke-opacity="1" stroke-width="2" stroke-linecap="butt" stroke-linejoin="miter" opacity="1" transform="translate(0,0) scale(1,1) rotate(0)" stroke-dashoffset="0" stroke-dasharray=""></circle></g><circle id="_unnamed_" r="60" fill="none" fill-opacity="0" stroke="rgba(0%,0%,0%,1)" stroke-opacity="1" stroke-width="2" stroke-linecap="butt" stroke-linejoin="miter" opacity="1" transform="translate(0,0) scale(1,1) rotate(0)" stroke-dashoffset="0" stroke-dasharray=""></circle></g><circle id="_unnamed_" r="70" fill="none" fill-opacity="0" stroke="rgba(0%,0%,0%,1)" stroke-opacity="1" stroke-width="2" stroke-linecap="butt" stroke-linejoin="miter" opacity="1" transform="translate(0,0) scale(1,1) rotate(0)" stroke-dashoffset="0" stroke-dasharray=""></circle></g><circle id="_unnamed_" r="80" fill="none" fill-opacity="0" stroke="rgba(0%,0%,0%,1)" stroke-opacity="1" stroke-width="2" stroke-linecap="butt" stroke-linejoin="miter" opacity="1" transform="translate(0,0) scale(1,1) rotate(0)" stroke-dashoffset="0" stroke-dasharray=""></circle></g><circle id="_unnamed_" r="90" fill="none" fill-opacity="0" stroke="rgba(0%,0%,0%,1)" stroke-opacity="1" stroke-width="2" stroke-linecap="butt" stroke-linejoin="miter" opacity="1" transform="translate(0,0) scale(1,1) rotate(0)" stroke-dashoffset="0" stroke-dasharray=""></circle></g><circle id="_unnamed_" r="100" fill="none" fill-opacity="0" stroke="rgba(0%,0%,0%,1)" stroke-opacity="1" stroke-width="2" stroke-linecap="butt" stroke-linejoin="miter" opacity="1" transform="translate(0,0) scale(1,1) rotate(0)" stroke-dashoffset="0" stroke-dasharray=""></circle></g></g></svg>
