<svg width="410px" height="410px"><g><svg x="400px" y="199.99999999999994px"><polyline fill="none" stroke="rgba(0%,0%,0%,1)" points="5, 0 0, 10 10, 10 5, 0"></polyline></svg><g><svg x="399.23893961834915px" y="182.56885145046834px"><polyline fill="none" stroke="rgba(0%,0%,0%,1)" points="5, 0 0, 10 10, 10 5, 0"></polyline></svg><g><svg x="396.9615506024416px" y="165.27036446661393px"><polyline fill="none" stroke="rgba(0%,0%,0%,1)" points="5, 0 0, 10 10, 10 5, 0"></polyline></svg><g><svg x="393.18516525781365px" y="148.23619097949586px"><polyline fill="none" stroke="rgba(0%,0%,0%,1)" points="5, 0 0, 10 10, 10 5, 0"></polyline></svg><g><svg x="387.93852415718163px" y="131.5959713348661px"><polyline fill="none" stroke="rgba(0%,0%,0%,1)" points="5, 0 0, 10 10, 10 5, 0"></polyline></svg><g><svg x="381.26155740733px" y="115.47634765186px"><polyline fill="none" stroke="rgba(0%,0%,0%,1)" points="5, 0 0, 10 10, 10 5, 0"></polyline></svg><g><svg x="373.2050807568877px" y="99.99999999999991px"><polyline fill="none" stroke="rgba(0%,0%,0%,1)" points="5, 0 0, 10 10, 10 5, 0"></polyline></svg><g><svg x="363.8304088577983px" y="85.2847127297907px"><polyline fill="none" stroke="rgba(0%,0%,0%,1)" points="5, 0 0, 10 10, 10 5, 0"></polyline></svg><g><svg x="353.2088886237956px" y="71.44247806269209px"><polyline fill="none" stroke="rgba(0%,0%,0%,1)" points="5, 0 0, 10 10, 10 5, 0"></polyline></svg><g><svg x="341.4213562373095px" y="58.57864376269046px"><polyline fill="none" stroke="rgba(0%,0%,0%,1)" points="5, 0 0, 10 10, 10 5, 0"></polyline></svg><g><svg x="328.55752193730785px" y="46.791111376204384px"><polyline fill="none" stroke="rgba(0%,0%,0%,1)" points="5, 0 0, 10 10, 10 5, 0"></polyline></svg><g><svg x="314.7152872702092px" y="36.169591142201654px"><polyline fill="none" stroke="rgba(0%,0%,0%,1)" points="5, 0 0, 10 10, 10 5, 0"></polyline></svg><g><svg x="300px" y="26.794919243112275px"><polyline fill="none" stroke="rgba(0%,0%,0%,1)" points="5, 0 0, 10 10, 10 5, 0"></polyline></svg><g><svg x="284.52365234813976px" y="18.73844259266994px"><polyline fill="none" stroke="rgba(0%,0%,0%,1)" points="5, 0 0, 10 10, 10 5, 0"></polyline></svg><g><svg x="268.40402866513364px" y="12.061475842818282px"><polyline fill="none" stroke="rgba(0%,0%,0%,1)" points="5, 0 0, 10 10, 10 5, 0"></polyline></svg><g><svg x="251.76380902050406px" y="6.814834742186321px"><polyline fill="none" stroke="rgba(0%,0%,0%,1)" points="5, 0 0, 10 10, 10 5, 0"></polyline></svg><g><svg x="234.729635533386px" y="3.0384493975583666px"><polyline fill="none" stroke="rgba(0%,0%,0%,1)" points="5, 0 0, 10 10, 10 5, 0"></polyline></svg><g><svg x="217.43114854953157px" y="0.7610603816508785px"><polyline fill="none" stroke="rgba(0%,0%,0%,1)" points="5, 0 0, 10 10, 10 5, 0"></polyline></svg><g><svg x="199.99999999999997px" y="0px"><polyline fill="none" stroke="rgba(0%,0%,0%,1)" points="5, 0 0, 10 10, 10 5, 0"></polyline></svg><g><svg x="182.56885145046834px" y="0.7610603816508785px"><polyline fill="none" stroke="rgba(0%,0%,0%,1)" points="5, 0 0, 10 10, 10 5, 0"></polyline></svg><g><svg x="165.27036446661393px" y="3.038449397558395px"><polyline fill="none" stroke="rgba(0%,0%,0%,1)" points="5, 0 0, 10 10, 10 5, 0"></polyline></svg><g><svg x="148.23619097949586px" y="6.814834742186349px"><polyline fill="none" stroke="rgba(0%,0%,0%,1)" points="5, 0 0, 10 10, 10 5, 0"></polyline></svg><g><svg x="131.59597133486614px" y="12.061475842818368px"><polyline fill="none" stroke="rgba(0%,0%,0%,1)" points="5, 0 0, 10 10, 10 5, 0"></polyline></svg><g><svg x="115.47634765186001px" y="18.738442592670054px"><polyline fill="none" stroke="rgba(0%,0%,0%,1)" points="5, 0 0, 10 10, 10 5, 0"></polyline></svg><g><svg x="99.99999999999991px" y="26.794919243112304px"><polyline fill="none" stroke="rgba(0%,0%,0%,1)" points="5, 0 0, 10 10, 10 5, 0"></polyline></svg><g><svg x="85.28471272979073px" y="36.16959114220168px"><polyline fill="none" stroke="rgba(0%,0%,0%,1)" points="5, 0 0, 10 10, 10 5, 0"></polyline></svg><g><svg x="71.44247806269212px" y="46.79111137620441px"><polyline fill="none" stroke="rgba(0%,0%,0%,1)" points="5, 0 0, 10 10, 10 5, 0"></polyline></svg><g><svg x="58.57864376269046px" y="58.57864376269052px"><polyline fill="none" stroke="rgba(0%,0%,0%,1)" points="5, 0 0, 10 10, 10 5, 0"></polyline></svg><g><svg x="46.791111376204384px" y="71.44247806269215px"><polyline fill="none" stroke="rgba(0%,0%,0%,1)" points="5, 0 0, 10 10, 10 5, 0"></polyline></svg><g><svg x="36.1695911422016px" y="85.28471272979084px"><polyline fill="none" stroke="rgba(0%,0%,0%,1)" points="5, 0 0, 10 10, 10 5, 0"></polyline></svg><g><svg x="26.794919243112247px" y="100.00000000000006px"><polyline fill="none" stroke="rgba(0%,0%,0%,1)" points="5, 0 0, 10 10, 10 5, 0"></polyline></svg><g><svg x="18.738442592669998px" y="115.47634765186015px"><polyline fill="none" stroke="rgba(0%,0%,0%,1)" points="5, 0 0, 10 10, 10 5, 0"></polyline></svg><g><svg x="12.06147584281831px" y="131.59597133486625px"><polyline fill="none" stroke="rgba(0%,0%,0%,1)" points="5, 0 0, 10 10, 10 5, 0"></polyline></svg><g><svg x="6.814834742186349px" y="148.23619097949583px"><polyline fill="none" stroke="rgba(0%,0%,0%,1)" points="5, 0 0, 10 10, 10 5, 0"></polyline></svg><g><svg x="3.0384493975583666px" y="165.270364466614px"><polyline fill="none" stroke="rgba(0%,0%,0%,1)" points="5, 0 0, 10 10, 10 5, 0"></polyline></svg><g><svg x="0.7610603816508785px" y="182.5688514504684px"><polyline fill="none" stroke="rgba(0%,0%,0%,1)" points="5, 0 0, 10 10, 10 5, 0"></polyline></svg><g><svg x="0px" y="200.00000000000003px"><polyline fill="none" stroke="rgba(0%,0%,0%,1)" points="5, 0 0, 10 10, 10 5, 0"></polyline></svg><g><svg x="0.7610603816508785px" y="217.43114854953163px"><polyline fill="none" stroke="rgba(0%,0%,0%,1)" points="5, 0 0, 10 10, 10 5, 0"></polyline></svg><g><svg x="3.038449397558395px" y="234.72963553338616px"><polyline fill="none" stroke="rgba(0%,0%,0%,1)" points="5, 0 0, 10 10, 10 5, 0"></polyline></svg><g><svg x="6.814834742186349px" y="251.7638090205042px"><polyline fill="none" stroke="rgba(0%,0%,0%,1)" points="5, 0 0, 10 10, 10 5, 0"></polyline></svg><g><svg x="12.06147584281834px" y="268.40402866513375px"><polyline fill="none" stroke="rgba(0%,0%,0%,1)" points="5, 0 0, 10 10, 10 5, 0"></polyline></svg><g><svg x="18.738442592670026px" y="284.5236523481399px"><polyline fill="none" stroke="rgba(0%,0%,0%,1)" points="5, 0 0, 10 10, 10 5, 0"></polyline></svg><g><svg x="26.794919243112247px" y="300px"><polyline fill="none" stroke="rgba(0%,0%,0%,1)" points="5, 0 0, 10 10, 10 5, 0"></polyline></svg><g><svg x="36.16959114220168px" y="314.7152872702093px"><polyline fill="none" stroke="rgba(0%,0%,0%,1)" points="5, 0 0, 10 10, 10 5, 0"></polyline></svg><g><svg x="46.79111137620441px" y="328.5575219373079px"><polyline fill="none" stroke="rgba(0%,0%,0%,1)" points="5, 0 0, 10 10, 10 5, 0"></polyline></svg><g><svg x="58.57864376269052px" y="341.4213562373095px"><polyline fill="none" stroke="rgba(0%,0%,0%,1)" points="5, 0 0, 10 10, 10 5, 0"></polyline></svg><g><svg x="71.44247806269212px" y="353.2088886237956px"><polyline fill="none" stroke="rgba(0%,0%,0%,1)" points="5, 0 0, 10 10, 10 5, 0"></polyline></svg><g><svg x="85.28471272979084px" y="363.8304088577984px"><polyline fill="none" stroke="rgba(0%,0%,0%,1)" points="5, 0 0, 10 10, 10 5, 0"></polyline></svg><g><svg x="100.00000000000004px" y="373.20508075688775px"><polyline fill="none" stroke="rgba(0%,0%,0%,1)" points="5, 0 0, 10 10, 10 5, 0"></polyline></svg><g><svg x="115.47634765186014px" y="381.26155740733px"><polyline fill="none" stroke="rgba(0%,0%,0%,1)" points="5, 0 0, 10 10, 10 5, 0"></polyline></svg><g><svg x="131.59597133486625px" y="387.9385241571817px"><polyline fill="none" stroke="rgba(0%,0%,0%,1)" points="5, 0 0, 10 10, 10 5, 0"></polyline></svg><g><svg x="148.23619097949586px" y="393.18516525781365px"><polyline fill="none" stroke="rgba(0%,0%,0%,1)" points="5, 0 0, 10 10, 10 5, 0"></polyline></svg><g><svg x="165.27036446661396px" y="396.9615506024416px"><polyline fill="none" stroke="rgba(0%,0%,0%,1)" points="5, 0 0, 10 10, 10 5, 0"></polyline></svg><g><svg x="182.5688514504684px" y="399.23893961834915px"><polyline fill="none" stroke="rgba(0%,0%,0%,1)" points="5, 0 0, 10 10, 10 5, 0"></polyline></svg><g><svg x="200px" y="400px"><polyline fill="none" stroke="rgba(0%,0%,0%,1)" points="5, 0 0, 10 10, 10 5, 0"></polyline></svg><g><svg x="217.43114854953166px" y="399.23893961834915px"><polyline fill="none" stroke="rgba(0%,0%,0%,1)" points="5, 0 0, 10 10, 10 5, 0"></polyline></svg><g><svg x="234.72963553338607px" y="396.9615506024416px"><polyline fill="none" stroke="rgba(0%,0%,0%,1)" points="5, 0 0, 10 10, 10 5, 0"></polyline></svg><g><svg x="251.76380902050414px" y="393.18516525781365px"><polyline fill="none" stroke="rgba(0%,0%,0%,1)" points="5, 0 0, 10 10, 10 5, 0"></polyline></svg><g><svg x="268.40402866513375px" y="387.93852415718163px"><polyline fill="none" stroke="rgba(0%,0%,0%,1)" points="5, 0 0, 10 10, 10 5, 0"></polyline></svg><g><svg x="284.5236523481399px" y="381.26155740733px"><polyline fill="none" stroke="rgba(0%,0%,0%,1)" points="5, 0 0, 10 10, 10 5, 0"></polyline></svg><g><svg x="300px" y="373.2050807568877px"><polyline fill="none" stroke="rgba(0%,0%,0%,1)" points="5, 0 0, 10 10, 10 5, 0"></polyline></svg><g><svg x="314.7152872702092px" y="363.8304088577984px"><polyline fill="none" stroke="rgba(0%,0%,0%,1)" points="5, 0 0, 10 10, 10 5, 0"></polyline></svg><g><svg x="328.5575219373079px" y="353.2088886237956px"><polyline fill="none" stroke="rgba(0%,0%,0%,1)" points="5, 0 0, 10 10, 10 5, 0"></polyline></svg><g><svg x="341.4213562373095px" y="341.4213562373095px"><polyline fill="none" stroke="rgba(0%,0%,0%,1)" points="5, 0 0, 10 10, 10 5, 0"></polyline></svg><g><svg x="353.2088886237956px" y="328.55752193730785px"><polyline fill="none" stroke="rgba(0%,0%,0%,1)" points="5, 0 0, 10 10, 10 5, 0"></polyline></svg><g><svg x="363.8304088577984px" y="314.7152872702092px"><polyline fill="none" stroke="rgba(0%,0%,0%,1)" points="5, 0 0, 10 10, 10 5, 0"></polyline></svg><g><svg x="373.20508075688775px" y="300px"><polyline fill="none" stroke="rgba(0%,0%,0%,1)" points="5, 0 0, 10 10, 10 5, 0"></polyline></svg><g><svg x="381.26155740733px" y="284.5236523481399px"><polyline fill="none" stroke="rgba(0%,0%,0%,1)" points="5, 0 0, 10 10, 10 5, 0"></polyline></svg><g><svg x="387.9385241571817px" y="268.40402866513375px"><polyline fill="none" stroke="rgba(0%,0%,0%,1)" points="5, 0 0, 10 10, 10 5, 0"></polyline></svg><g><svg x="393.18516525781365px" y="251.76380902050414px"><polyline fill="none" stroke="rgba(0%,0%,0%,1)" points="5, 0 0, 10 10, 10 5, 0"></polyline></svg><g><svg x="396.9615506024416px" y="234.72963553338607px"><polyline fill="none" stroke="rgba(0%,0%,0%,1)" points="5, 0 0, 10 10, 10 5, 0"></polyline></svg><g><svg x="399.23893961834915px" y="217.43114854953163px"><polyline fill="none" stroke="rgba(0%,0%,0%,1)" points="5, 0 0, 10 10, 10 5, 0"></polyline></svg><g></g></g></g></g></g></g></g></g></g></g></g></g></g></g></g></g></g></g></g></g></g></g></g></g></g></g></g></g></g></g></g></g></g></g></g></g></g></g></g></g></g></g></g></g></g></g></g></g></g></g></g></g></g></g></g></g></g></g></g></g></g></g></g></g></g></g></g></g></g></g></g></g></g></svg>
