<svg width="1032" height="344" version="1.1"><g id="_unnamed_" transform="translate(172,172) scale(1,1) rotate(0)"><g id="_unnamed_" transform="translate(344,0) scale(1,1) rotate(0)"><g id="_unnamed_" transform="translate(344,0) scale(1,1) rotate(0)"><rect id="_unnamed_" rx="0" ry="0" width="0" height="0" x="0" y="0" fill="none" fill-opacity="0" stroke="none" stroke-opacity="0" stroke-width="0" stroke-linecap="butt" stroke-linejoin="miter" opacity="1" transform="translate(172,0) scale(1,1) rotate(0)" stroke-dashoffset="0" stroke-dasharray=""></rect><g id="_unnamed_" transform="translate(0,0) scale(1,1) rotate(0)"><g id="_unnamed_" transform="translate(0,0) scale(1,1) rotate(0)"><g id="_unnamed_" transform="translate(0,0) scale(1,1) rotate(0)"><g id="_unnamed_" transform="translate(0,0) scale(1,1) rotate(0)"><g id="_unnamed_" transform="translate(0,0) scale(1,1) rotate(0)"><g id="_unnamed_" transform="translate(0,0) scale(1,1) rotate(0)"><g id="_unnamed_" transform="translate(0,0) scale(1,1) rotate(0)"><g id="_unnamed_" transform="translate(0,0) scale(1,1) rotate(0)"><g id="_unnamed_" transform="translate(0,0) scale(1,1) rotate(0)"><g id="_unnamed_" transform="translate(0,0) scale(1,1) rotate(0)"><rect id="_unnamed_" rx="0" ry="0" width="0" height="0" x="0" y="0" fill="none" fill-opacity="0" stroke="none" stroke-opacity="0" stroke-width="0" stroke-linecap="butt" stroke-linejoin="miter" opacity="1" transform="translate(0,0) scale(1,1) rotate(0)" stroke-dashoffset="0" stroke-dasharray=""></rect><rect id="_unnamed_" rx="0" ry="0" width="124" height="124" x="-62" y="-62" fill="none" fill-opacity="0" stroke="rgba(24.17%,20.39%,64.31%,1)" stroke-opacity="1" stroke-width="4" stroke-linecap="butt" stroke-linejoin="miter" opacity="1" transform="translate(0,0) scale(1,1) rotate(0)" stroke-dashoffset="0" stroke-dasharray=""></rect></g><rect id="_unnamed_" rx="0" ry="0" width="148" height="148" x="-74" y="-74" fill="none" fill-opacity="0" stroke="rgba(47.17%,20.39%,64.31%,1)" stroke-opacity="1" stroke-width="4" stroke-linecap="butt" stroke-linejoin="miter" opacity="1" transform="translate(0,0) scale(1,1) rotate(0)" stroke-dashoffset="0" stroke-dasharray=""></rect></g><rect id="_unnamed_" rx="0" ry="0" width="172" height="172" x="-86" y="-86" fill="none" fill-opacity="0" stroke="rgba(64.31%,20.39%,58.46%,1)" stroke-opacity="1" stroke-width="4" stroke-linecap="butt" stroke-linejoin="miter" opacity="1" transform="translate(0,0) scale(1,1) rotate(0)" stroke-dashoffset="0" stroke-dasharray=""></rect></g><rect id="_unnamed_" rx="0" ry="0" width="196" height="196" x="-98" y="-98" fill="none" fill-opacity="0" stroke="rgba(64.31%,20.39%,35.46%,1)" stroke-opacity="1" stroke-width="4" stroke-linecap="butt" stroke-linejoin="miter" opacity="1" transform="translate(0,0) scale(1,1) rotate(0)" stroke-dashoffset="0" stroke-dasharray=""></rect></g><rect id="_unnamed_" rx="0" ry="0" width="220" height="220" x="-110" y="-110" fill="none" fill-opacity="0" stroke="rgba(64.31%,28.32%,20.39%,1)" stroke-opacity="1" stroke-width="4" stroke-linecap="butt" stroke-linejoin="miter" opacity="1" transform="translate(0,0) scale(1,1) rotate(0)" stroke-dashoffset="0" stroke-dasharray=""></rect></g><rect id="_unnamed_" rx="0" ry="0" width="244" height="244" x="-122" y="-122" fill="none" fill-opacity="0" stroke="rgba(64.31%,51.32%,20.39%,1)" stroke-opacity="1" stroke-width="4" stroke-linecap="butt" stroke-linejoin="miter" opacity="1" transform="translate(0,0) scale(1,1) rotate(0)" stroke-dashoffset="0" stroke-dasharray=""></rect></g><rect id="_unnamed_" rx="0" ry="0" width="268" height="268" x="-134" y="-134" fill="none" fill-opacity="0" stroke="rgba(54.31%,64.31%,20.39%,1)" stroke-opacity="1" stroke-width="4" stroke-linecap="butt" stroke-linejoin="miter" opacity="1" transform="translate(0,0) scale(1,1) rotate(0)" stroke-dashoffset="0" stroke-dasharray=""></rect></g><rect id="_unnamed_" rx="0" ry="0" width="292" height="292" x="-146" y="-146" fill="none" fill-opacity="0" stroke="rgba(31.32%,64.31%,20.39%,1)" stroke-opacity="1" stroke-width="4" stroke-linecap="butt" stroke-linejoin="miter" opacity="1" transform="translate(0,0) scale(1,1) rotate(0)" stroke-dashoffset="0" stroke-dasharray=""></rect></g><rect id="_unnamed_" rx="0" ry="0" width="316" height="316" x="-158" y="-158" fill="none" fill-opacity="0" stroke="rgba(20.39%,64.31%,32.47%,1)" stroke-opacity="1" stroke-width="4" stroke-linecap="butt" stroke-linejoin="miter" opacity="1" transform="translate(0,0) scale(1,1) rotate(0)" stroke-dashoffset="0" stroke-dasharray=""></rect></g><rect id="_unnamed_" rx="0" ry="0" width="340" height="340" x="-170" y="-170" fill="none" fill-opacity="0" stroke="rgba(20.39%,64.31%,55.46%,1)" stroke-opacity="1" stroke-width="4" stroke-linecap="butt" stroke-linejoin="miter" opacity="1" transform="translate(0,0) scale(1,1) rotate(0)" stroke-dashoffset="0" stroke-dasharray=""></rect></g></g><g id="_unnamed_" transform="translate(0,0) scale(1,1) rotate(0)"><g id="_unnamed_" transform="translate(0,0) scale(1,1) rotate(0)"><g id="_unnamed_" transform="translate(0,0) scale(1,1) rotate(0)"><g id="_unnamed_" transform="translate(0,0) scale(1,1) rotate(0)"><g id="_unnamed_" transform="translate(0,0) scale(1,1) rotate(0)"><g id="_unnamed_" transform="translate(0,0) scale(1,1) rotate(0)"><g id="_unnamed_" transform="translate(0,0) scale(1,1) rotate(0)"><g id="_unnamed_" transform="translate(0,0) scale(1,1) rotate(0)"><g id="_unnamed_" transform="translate(0,0) scale(1,1) rotate(0)"><g id="_unnamed_" transform="translate(0,0) scale(1,1) rotate(0)"><rect id="_unnamed_" rx="0" ry="0" width="0" height="0" x="0" y="0" fill="none" fill-opacity="0" stroke="none" stroke-opacity="0" stroke-width="0" stroke-linecap="butt" stroke-linejoin="miter" opacity="1" transform="translate(0,0) scale(1,1) rotate(0)" stroke-dashoffset="0" stroke-dasharray=""></rect><polygon id="_unnamed_" points="-62,53.693575034635195 62,53.693575034635195 0,-53.693575034635195" fill="none" fill-opacity="0" stroke="rgba(20.39%,39.61%,64.31%,1)" stroke-opacity="0.050000000000000044" stroke-width="4" stroke-linecap="butt" stroke-linejoin="miter" opacity="1" transform="translate(0,0) scale(1,1) rotate(0)" stroke-dashoffset="0" stroke-dasharray=""></polygon></g><polygon id="_unnamed_" points="-74,64.08587988004845 74,64.08587988004845 0,-64.08587988004845" fill="none" fill-opacity="0" stroke="rgba(20.39%,39.61%,64.31%,1)" stroke-opacity="0.09999999999999998" stroke-width="4" stroke-linecap="butt" stroke-linejoin="miter" opacity="1" transform="translate(0,0) scale(1,1) rotate(0)" stroke-dashoffset="0" stroke-dasharray=""></polygon></g><polygon id="_unnamed_" points="-86,74.47818472546172 86,74.47818472546172 0,-74.47818472546172" fill="none" fill-opacity="0" stroke="rgba(20.39%,39.61%,64.31%,1)" stroke-opacity="0.15000000000000002" stroke-width="4" stroke-linecap="butt" stroke-linejoin="miter" opacity="1" transform="translate(0,0) scale(1,1) rotate(0)" stroke-dashoffset="0" stroke-dasharray=""></polygon></g><polygon id="_unnamed_" points="-98,84.87048957087498 98,84.87048957087498 0,-84.87048957087498" fill="none" fill-opacity="0" stroke="rgba(20.39%,39.61%,64.31%,1)" stroke-opacity="0.19999999999999996" stroke-width="4" stroke-linecap="butt" stroke-linejoin="miter" opacity="1" transform="translate(0,0) scale(1,1) rotate(0)" stroke-dashoffset="0" stroke-dasharray=""></polygon></g><polygon id="_unnamed_" points="-110,95.26279441628824 110,95.26279441628824 0,-95.26279441628824" fill="none" fill-opacity="0" stroke="rgba(20.39%,39.61%,64.31%,1)" stroke-opacity="0.25" stroke-width="4" stroke-linecap="butt" stroke-linejoin="miter" opacity="1" transform="translate(0,0) scale(1,1) rotate(0)" stroke-dashoffset="0" stroke-dasharray=""></polygon></g><polygon id="_unnamed_" points="-122,105.65509926170151 122,105.65509926170151 0,-105.65509926170151" fill="none" fill-opacity="0" stroke="rgba(20.39%,39.61%,64.31%,1)" stroke-opacity="0.30000000000000004" stroke-width="4" stroke-linecap="butt" stroke-linejoin="miter" opacity="1" transform="translate(0,0) scale(1,1) rotate(0)" stroke-dashoffset="0" stroke-dasharray=""></polygon></g><polygon id="_unnamed_" points="-134,116.04740410711477 134,116.04740410711477 0,-116.04740410711477" fill="none" fill-opacity="0" stroke="rgba(20.39%,39.61%,64.31%,1)" stroke-opacity="0.35" stroke-width="4" stroke-linecap="butt" stroke-linejoin="miter" opacity="1" transform="translate(0,0) scale(1,1) rotate(0)" stroke-dashoffset="0" stroke-dasharray=""></polygon></g><polygon id="_unnamed_" points="-146,126.43970895252804 146,126.43970895252804 0,-126.43970895252804" fill="none" fill-opacity="0" stroke="rgba(20.39%,39.61%,64.31%,1)" stroke-opacity="0.4" stroke-width="4" stroke-linecap="butt" stroke-linejoin="miter" opacity="1" transform="translate(0,0) scale(1,1) rotate(0)" stroke-dashoffset="0" stroke-dasharray=""></polygon></g><polygon id="_unnamed_" points="-158,136.8320137979413 158,136.8320137979413 0,-136.8320137979413" fill="none" fill-opacity="0" stroke="rgba(20.39%,39.61%,64.31%,1)" stroke-opacity="0.44999999999999996" stroke-width="4" stroke-linecap="butt" stroke-linejoin="miter" opacity="1" transform="translate(0,0) scale(1,1) rotate(0)" stroke-dashoffset="0" stroke-dasharray=""></polygon></g><polygon id="_unnamed_" points="-170,147.22431864335456 170,147.22431864335456 0,-147.22431864335456" fill="none" fill-opacity="0" stroke="rgba(20.39%,39.61%,64.31%,1)" stroke-opacity="0.5" stroke-width="4" stroke-linecap="butt" stroke-linejoin="miter" opacity="1" transform="translate(0,0) scale(1,1) rotate(0)" stroke-dashoffset="0" stroke-dasharray=""></polygon></g></g><g id="_unnamed_" transform="translate(0,0) scale(1,1) rotate(0)"><g id="_unnamed_" transform="translate(0,0) scale(1,1) rotate(0)"><g id="_unnamed_" transform="translate(0,0) scale(1,1) rotate(0)"><g id="_unnamed_" transform="translate(0,0) scale(1,1) rotate(0)"><g id="_unnamed_" transform="translate(0,0) scale(1,1) rotate(0)"><g id="_unnamed_" transform="translate(0,0) scale(1,1) rotate(0)"><g id="_unnamed_" transform="translate(0,0) scale(1,1) rotate(0)"><g id="_unnamed_" transform="translate(0,0) scale(1,1) rotate(0)"><g id="_unnamed_" transform="translate(0,0) scale(1,1) rotate(0)"><g id="_unnamed_" transform="translate(0,0) scale(1,1) rotate(0)"><rect id="_unnamed_" rx="0" ry="0" width="0" height="0" x="0" y="0" fill="none" fill-opacity="0" stroke="none" stroke-opacity="0" stroke-width="0" stroke-linecap="butt" stroke-linejoin="miter" opacity="1" transform="translate(0,0) scale(1,1) rotate(0)" stroke-dashoffset="0" stroke-dasharray=""></rect><circle id="_unnamed_" r="62" fill="none" fill-opacity="0" stroke="rgba(24.17%,20.39%,64.31%,1)" stroke-opacity="1" stroke-width="4" stroke-linecap="butt" stroke-linejoin="miter" opacity="1" transform="translate(0,0) scale(1,1) rotate(0)" stroke-dashoffset="0" stroke-dasharray=""></circle></g><circle id="_unnamed_" r="74" fill="none" fill-opacity="0" stroke="rgba(47.17%,20.39%,64.31%,1)" stroke-opacity="1" stroke-width="4" stroke-linecap="butt" stroke-linejoin="miter" opacity="1" transform="translate(0,0) scale(1,1) rotate(0)" stroke-dashoffset="0" stroke-dasharray=""></circle></g><circle id="_unnamed_" r="86" fill="none" fill-opacity="0" stroke="rgba(64.31%,20.39%,58.46%,1)" stroke-opacity="1" stroke-width="4" stroke-linecap="butt" stroke-linejoin="miter" opacity="1" transform="translate(0,0) scale(1,1) rotate(0)" stroke-dashoffset="0" stroke-dasharray=""></circle></g><circle id="_unnamed_" r="98" fill="none" fill-opacity="0" stroke="rgba(64.31%,20.39%,35.46%,1)" stroke-opacity="1" stroke-width="4" stroke-linecap="butt" stroke-linejoin="miter" opacity="1" transform="translate(0,0) scale(1,1) rotate(0)" stroke-dashoffset="0" stroke-dasharray=""></circle></g><circle id="_unnamed_" r="110" fill="none" fill-opacity="0" stroke="rgba(64.31%,28.32%,20.39%,1)" stroke-opacity="1" stroke-width="4" stroke-linecap="butt" stroke-linejoin="miter" opacity="1" transform="translate(0,0) scale(1,1) rotate(0)" stroke-dashoffset="0" stroke-dasharray=""></circle></g><circle id="_unnamed_" r="122" fill="none" fill-opacity="0" stroke="rgba(64.31%,51.32%,20.39%,1)" stroke-opacity="1" stroke-width="4" stroke-linecap="butt" stroke-linejoin="miter" opacity="1" transform="translate(0,0) scale(1,1) rotate(0)" stroke-dashoffset="0" stroke-dasharray=""></circle></g><circle id="_unnamed_" r="134" fill="none" fill-opacity="0" stroke="rgba(54.31%,64.31%,20.39%,1)" stroke-opacity="1" stroke-width="4" stroke-linecap="butt" stroke-linejoin="miter" opacity="1" transform="translate(0,0) scale(1,1) rotate(0)" stroke-dashoffset="0" stroke-dasharray=""></circle></g><circle id="_unnamed_" r="146" fill="none" fill-opacity="0" stroke="rgba(31.32%,64.31%,20.39%,1)" stroke-opacity="1" stroke-width="4" stroke-linecap="butt" stroke-linejoin="miter" opacity="1" transform="translate(0,0) scale(1,1) rotate(0)" stroke-dashoffset="0" stroke-dasharray=""></circle></g><circle id="_unnamed_" r="158" fill="none" fill-opacity="0" stroke="rgba(20.39%,64.31%,32.47%,1)" stroke-opacity="1" stroke-width="4" stroke-linecap="butt" stroke-linejoin="miter" opacity="1" transform="translate(0,0) scale(1,1) rotate(0)" stroke-dashoffset="0" stroke-dasharray=""></circle></g><circle id="_unnamed_" r="170" fill="none" fill-opacity="0" stroke="rgba(20.39%,64.31%,55.46%,1)" stroke-opacity="1" stroke-width="4" stroke-linecap="butt" stroke-linejoin="miter" opacity="1" transform="translate(0,0) scale(1,1) rotate(0)" stroke-dashoffset="0" stroke-dasharray=""></circle></g></g></svg>
