<svg width="300.6895088254814" height="300.2766149960623" version="1.1"><g id="_unnamed_" transform="translate(149.91252432379275,149.2922991406606) scale(1,1) rotate(0)"><polygon id="_unnamed_" points="9.184850993605149e-15,-150 -54.18624992807294,-139.87083441065337 -101.05434654698358,-110.85133758309887 -134.27449370325934,-66.86075336648075 -149.3601264442552,-13.840253919495277 -144.27384647592285,41.049448510812425 -119.70258409203593,90.39519545688843 -78.9648244316034,127.5325703594421 -27.562427672485498,147.44596495258529 27.56242767248544,147.44596495258529 78.96482443160338,127.53257035944212 119.7025840920359,90.39519545688847 144.27384647592285,41.049448510812475 149.3601264442552,-13.840253919495224 134.27449370325934,-66.86075336648076 101.05434654698358,-110.85133758309887 54.18624992807296,-139.87083441065334 4.592425496802575e-14,-150" fill="rgba(55.13%,91%,49%,1)" fill-opacity="1" stroke="rgba(93.73%,16.08%,16.08%,1)" stroke-opacity="1" stroke-width="1.5" stroke-linecap="butt" stroke-linejoin="miter" opacity="1" transform="translate(0,0) scale(1,1) rotate(-859.4366926962349)" stroke-dashoffset="0" stroke-dasharray=""></polygon><g id="_unnamed_" transform="translate(0,0) scale(1,1) rotate(0)"><polygon id="_unnamed_" points="8.572527594031473e-15,-140 -53.57568053111256,-129.34313455158014 -98.99494936611664,-98.99494936611666 -129.34313455158014,-53.57568053111258 -140,-1.7145055188062946e-14 -129.34313455158016,53.57568053111255 -98.99494936611667,98.99494936611664 -53.575680531112646,129.3431345515801 -2.5717582782094416e-14,140 53.5756805311126,129.34313455158014 98.99494936611663,98.99494936611667 129.3431345515801,53.57568053111265 140,3.429011037612589e-14 129.34313455158014,-53.575680531112596 98.99494936611667,-98.99494936611663 53.57568053111266,-129.3431345515801 4.2862637970157365e-14,-140" fill="rgba(77.12%,91%,49%,1)" fill-opacity="1" stroke="rgba(93.73%,16.08%,16.08%,1)" stroke-opacity="1" stroke-width="1.5" stroke-linecap="butt" stroke-linejoin="miter" opacity="1" transform="translate(0,0) scale(1,1) rotate(-802.1409131831526)" stroke-dashoffset="0" stroke-dasharray=""></polygon><g id="_unnamed_" transform="translate(0,0) scale(1,1) rotate(0)"><polygon id="_unnamed_" points="7.960204194457796e-15,-130 -52.87576359985401,-118.76090949353812 -96.60882731206124,-86.98697882665158 -123.63734711836996,-40.172209268743174 -129.28784639787554,13.588700224794897 -112.58330249197705,64.99999999999996 -76.41208279802152,105.17220926874316 -27.028519806308772,127.15918809539473 27.028519806308612,127.15918809539475 76.41208279802147,105.17220926874319 112.583302491977,65.00000000000006 129.28784639787554,13.58870022479506 123.63734711836997,-40.17220926874313 96.6088273120613,-86.98697882665151 52.87576359985414,-118.76090949353807 3.980102097228898e-14,-130" fill="rgba(91%,82.88%,49%,1)" fill-opacity="1" stroke="rgba(93.73%,16.08%,16.08%,1)" stroke-opacity="1" stroke-width="1.5" stroke-linecap="butt" stroke-linejoin="miter" opacity="1" transform="translate(0,0) scale(1,1) rotate(-744.8451336700701)" stroke-dashoffset="0" stroke-dasharray=""></polygon><g id="_unnamed_" transform="translate(0,0) scale(1,1) rotate(0)"><polygon id="_unnamed_" points="7.34788079488412e-15,-120 -52.06604869410697,-108.1162641482903 -93.81977789616356,-74.81877622304803 -116.99134946181883,-26.702512074757742 -116.99134946181883,26.702512074757713 -93.81977789616359,74.818776223048 -52.066048694106996,108.11626414829028 -2.2043642384652355e-14,120 52.066048694106954,108.11626414829031 93.81977789616356,74.81877622304805 116.99134946181883,26.702512074757756 116.99134946181883,-26.7025120747577 93.81977789616359,-74.818776223048 52.06604869410701,-108.11626414829028 3.6739403974420595e-14,-120" fill="rgba(91%,60.89%,49%,1)" fill-opacity="1" stroke="rgba(93.73%,16.08%,16.08%,1)" stroke-opacity="1" stroke-width="1.5" stroke-linecap="butt" stroke-linejoin="miter" opacity="1" transform="translate(0,0) scale(1,1) rotate(-687.5493541569879)" stroke-dashoffset="0" stroke-dasharray=""></polygon><g id="_unnamed_" transform="translate(0,0) scale(1,1) rotate(0)"><polygon id="_unnamed_" points="6.735557395310443e-15,-110 -51.11954892481454,-97.40016282185309 -90.52822524830219,-62.48712214042714 -109.19797615078593,-13.259034828085586 -102.85178669539563,39.006537574678916 -72.94349240648751,82.3361822988211 -26.324723071631446,106.80359991686569 26.32472307163131,106.80359991686574 72.94349240648747,82.33618229882111 102.85178669539562,39.00653757467896 109.19797615078595,-13.259034828085449 90.52822524830222,-62.487122140427104 51.119548924814616,-97.40016282185306 3.3677786976552216e-14,-110" fill="rgba(91%,49%,59.1%,1)" fill-opacity="1" stroke="rgba(93.73%,16.08%,16.08%,1)" stroke-opacity="1" stroke-width="1.5" stroke-linecap="butt" stroke-linejoin="miter" opacity="1" transform="translate(0,0) scale(1,1) rotate(-630.2535746439056)" stroke-dashoffset="0" stroke-dasharray=""></polygon><g id="_unnamed_" transform="translate(0,0) scale(1,1) rotate(0)"><polygon id="_unnamed_" points="6.123233995736766e-15,-100 -49.99999999999998,-86.60254037844388 -86.60254037844385,-50.000000000000036 -100,-1.2246467991473532e-14 -86.60254037844388,49.99999999999997 -50.00000000000004,86.60254037844385 -1.8369701987210297e-14,100 49.999999999999936,86.6025403784439 86.60254037844383,50.00000000000004 100,2.4492935982947064e-14 86.6025403784439,-49.99999999999993 50.00000000000006,-86.60254037844383 3.061616997868383e-14,-100" fill="rgba(91%,49%,81.09%,1)" fill-opacity="1" stroke="rgba(93.73%,16.08%,16.08%,1)" stroke-opacity="1" stroke-width="1.5" stroke-linecap="butt" stroke-linejoin="miter" opacity="1" transform="translate(0,0) scale(1,1) rotate(-572.9577951308232)" stroke-dashoffset="0" stroke-dasharray=""></polygon><g id="_unnamed_" transform="translate(0,0) scale(1,1) rotate(0)"><polygon id="_unnamed_" points="5.5109105961630896e-15,-90 -48.65767357100379,-75.7128179548063 -81.86687958190666,-37.38735117016977 -89.08392976928396,12.808335444595643 -68.01746169188326,58.937466055075646 -25.355930115728675,86.35436762530476 25.35593011572864,86.35436762530477 68.0174616918832,58.93746605507571 89.08392976928394,12.808335444595677 81.86687958190667,-37.38735117016974 48.65767357100378,-75.71281795480631 2.755455298081545e-14,-90" fill="rgba(78.92%,49%,91%,1)" fill-opacity="1" stroke="rgba(93.73%,16.08%,16.08%,1)" stroke-opacity="1" stroke-width="1.5" stroke-linecap="butt" stroke-linejoin="miter" opacity="1" transform="translate(0,0) scale(1,1) rotate(-515.6620156177408)" stroke-dashoffset="0" stroke-dasharray=""></polygon><g id="_unnamed_" transform="translate(0,0) scale(1,1) rotate(0)"><polygon id="_unnamed_" points="4.898587196589413e-15,-80 -47.02282018339784,-64.7213595499958 -76.08452130361228,-24.7213595499958 -76.08452130361229,24.721359549995782 -47.02282018339786,64.72135954999578 -1.4695761589768237e-14,80 47.02282018339783,64.72135954999581 76.08452130361228,24.72135954999581 76.08452130361229,-24.721359549995775 47.02282018339787,-64.72135954999578 2.4492935982947064e-14,-80" fill="rgba(56.93%,49%,91%,1)" fill-opacity="1" stroke="rgba(93.73%,16.08%,16.08%,1)" stroke-opacity="1" stroke-width="1.5" stroke-linecap="butt" stroke-linejoin="miter" opacity="1" transform="translate(0,0) scale(1,1) rotate(-458.3662361046586)" stroke-dashoffset="0" stroke-dasharray=""></polygon><g id="_unnamed_" transform="translate(0,0) scale(1,1) rotate(0)"><polygon id="_unnamed_" points="4.2862637970157365e-15,-70 -44.99513267805776,-53.62311101832846 -68.93654271085457,-12.15537243668512 -60.621778264910716,34.99999999999998 -23.9414100327968,65.77848345501359 23.94141003279677,65.7784834550136 60.62177826491069,35.00000000000003 68.93654271085457,-12.155372436685093 44.99513267805777,-53.623111018328444 2.1431318985078682e-14,-70" fill="rgba(49%,63.06%,91%,1)" fill-opacity="1" stroke="rgba(93.73%,16.08%,16.08%,1)" stroke-opacity="1" stroke-width="1.5" stroke-linecap="butt" stroke-linejoin="miter" opacity="1" transform="translate(0,0) scale(1,1) rotate(-401.0704565915763)" stroke-dashoffset="0" stroke-dasharray=""></polygon><g id="_unnamed_" transform="translate(0,0) scale(1,1) rotate(0)"><polygon id="_unnamed_" points="3.67394039744206e-15,-60 -42.426406871192846,-42.42640687119285 -60,-7.34788079488412e-15 -42.42640687119286,42.426406871192846 -1.1021821192326178e-14,60 42.42640687119284,42.42640687119286 60,1.469576158976824e-14 42.42640687119286,-42.42640687119284 1.8369701987210297e-14,-60" fill="rgba(49%,85.05%,91%,1)" fill-opacity="1" stroke="rgba(93.73%,16.08%,16.08%,1)" stroke-opacity="1" stroke-width="1.5" stroke-linecap="butt" stroke-linejoin="miter" opacity="1" transform="translate(0,0) scale(1,1) rotate(-343.77467707849394)" stroke-dashoffset="0" stroke-dasharray=""></polygon><g id="_unnamed_" transform="translate(0,0) scale(1,1) rotate(0)"><polygon id="_unnamed_" points="3.061616997868383e-15,-50 -39.091574123401486,-31.17449009293668 -48.74639560909118,11.126046697815713 -21.694186955877914,45.048443395120955 21.694186955877896,45.04844339512096 48.746395609091174,11.126046697815733 39.09157412340149,-31.17449009293667 1.5308084989341916e-14,-50" fill="rgba(49%,91%,74.96%,1)" fill-opacity="1" stroke="rgba(93.73%,16.08%,16.08%,1)" stroke-opacity="1" stroke-width="1.5" stroke-linecap="butt" stroke-linejoin="miter" opacity="1" transform="translate(0,0) scale(1,1) rotate(-286.4788975654116)" stroke-dashoffset="0" stroke-dasharray=""></polygon><g id="_unnamed_" transform="translate(0,0) scale(1,1) rotate(0)"><polygon id="_unnamed_" points="2.4492935982947065e-15,-40 -34.64101615137754,-20.000000000000014 -34.641016151377556,19.99999999999999 -7.347880794884118e-15,40 34.641016151377535,20.000000000000018 34.64101615137756,-19.99999999999997 1.2246467991473532e-14,-40" fill="rgba(49%,91%,52.96%,1)" fill-opacity="1" stroke="rgba(93.73%,16.08%,16.08%,1)" stroke-opacity="1" stroke-width="1.5" stroke-linecap="butt" stroke-linejoin="miter" opacity="1" transform="translate(0,0) scale(1,1) rotate(-229.1831180523293)" stroke-dashoffset="0" stroke-dasharray=""></polygon><g id="_unnamed_" transform="translate(0,0) scale(1,1) rotate(0)"><polygon id="_unnamed_" points="1.83697019872103e-15,-30 -28.531695488854606,-9.270509831248425 -17.633557568774197,24.27050983124842 17.633557568774187,24.270509831248425 28.53169548885461,-9.270509831248415 9.184850993605149e-15,-30" fill="rgba(67.03%,91%,49%,1)" fill-opacity="1" stroke="rgba(93.73%,16.08%,16.08%,1)" stroke-opacity="1" stroke-width="1.5" stroke-linecap="butt" stroke-linejoin="miter" opacity="1" transform="translate(0,0) scale(1,1) rotate(-171.88733853924697)" stroke-dashoffset="0" stroke-dasharray=""></polygon><g id="_unnamed_" transform="translate(0,0) scale(1,1) rotate(0)"><polygon id="_unnamed_" points="1.2246467991473533e-15,-20 -20,-2.4492935982947065e-15 -3.673940397442059e-15,20 20,4.898587196589413e-15 6.123233995736766e-15,-20" fill="rgba(89.02%,91%,49%,1)" fill-opacity="1" stroke="rgba(93.73%,16.08%,16.08%,1)" stroke-opacity="1" stroke-width="1.5" stroke-linecap="butt" stroke-linejoin="miter" opacity="1" transform="translate(0,0) scale(1,1) rotate(-114.59155902616465)" stroke-dashoffset="0" stroke-dasharray=""></polygon><g id="_unnamed_" transform="translate(0,0) scale(1,1) rotate(0)"><polygon id="_unnamed_" points="6.123233995736766e-16,-10 -8.660254037844389,4.999999999999997 8.660254037844384,5.000000000000004 3.061616997868383e-15,-10" fill="rgba(91%,70.99%,49%,1)" fill-opacity="1" stroke="rgba(93.73%,16.08%,16.08%,1)" stroke-opacity="1" stroke-width="1.5" stroke-linecap="butt" stroke-linejoin="miter" opacity="1" transform="translate(0,0) scale(1,1) rotate(-57.29577951308232)" stroke-dashoffset="0" stroke-dasharray=""></polygon><rect id="_unnamed_" rx="0" ry="0" width="0" height="0" x="0" y="0" fill="none" fill-opacity="0" stroke="none" stroke-opacity="0" stroke-width="0" stroke-linecap="butt" stroke-linejoin="miter" opacity="1" transform="translate(0,0) scale(1,1) rotate(0)" stroke-dashoffset="0" stroke-dasharray=""></rect></g></g></g></g></g></g></g></g></g></g></g></g></g></g></g></svg>
