<svg width="979.7464868072487" height="197.96428837618657" version="1.1"><g id="_unnamed_" transform="translate(95.94929736144975,98.9821441880933) scale(1,1) rotate(0)"><g id="_unnamed_" transform="translate(195.94929736144974,0) scale(1,1) rotate(0)"><g id="_unnamed_" transform="translate(195.94929736144974,0) scale(1,1) rotate(0)"><g id="_unnamed_" transform="translate(195.94929736144977,0) scale(1,1) rotate(0)"><g id="_unnamed_" transform="translate(195.94929736144974,0) scale(1,1) rotate(0)"><rect id="_unnamed_" rx="0" ry="0" width="0" height="0" x="0" y="0" fill="none" fill-opacity="0" stroke="none" stroke-opacity="0" stroke-width="0" stroke-linecap="butt" stroke-linejoin="miter" opacity="1" transform="translate(100,0) scale(1,1) rotate(0)" stroke-dashoffset="0" stroke-dasharray=""></rect><polyline id="_unnamed_" points="100,0 -95.94929736144974,-28.173255684142966 84.12535328311812,54.06408174555975 -65.48607339452852,-75.57495743542582 41.54150130018866,90.96319953545184 -14.231483827328539,-98.98214418809327 -14.231483827328484,98.98214418809329 41.54150130018877,-90.96319953545178 -65.48607339452847,75.57495743542584 84.125353283118,-54.064081745559946 -95.94929736144972,28.173255684143015 100,0" stroke="rgba(0%,0%,0%,1)" stroke-opacity="1" stroke-width="2" stroke-linecap="butt" stroke-linejoin="miter" fill="none" opacity="1" transform="translate(0,0) scale(1,1) rotate(0)" stroke-dashoffset="0" stroke-dasharray=""></polyline></g><polyline id="_unnamed_" points="100,0 -65.4860733945285,-75.57495743542584 -14.231483827328523,98.98214418809327 84.12535328311816,-54.06408174555971 -95.94929736144974,-28.17325568414299 41.54150130018866,90.96319953545184 41.54150130018875,-90.96319953545179 -95.94929736144977,28.173255684142894 84.1253532831181,54.06408174555979 -14.23148382732834,-98.9821441880933 -65.48607339452847,75.57495743542584 100,0" stroke="rgba(0%,0%,0%,1)" stroke-opacity="1" stroke-width="2" stroke-linecap="butt" stroke-linejoin="miter" fill="none" opacity="1" transform="translate(0,0) scale(1,1) rotate(0)" stroke-dashoffset="0" stroke-dasharray=""></polyline></g><polyline id="_unnamed_" points="100,0 -14.2314838273285,-98.98214418809329 -95.94929736144975,28.17325568414294 41.54150130018861,90.96319953545185 84.12535328311816,-54.06408174555971 -65.48607339452839,-75.57495743542594 -65.48607339452857,75.57495743542577 84.12535328311812,54.06408174555977 41.54150130018875,-90.96319953545179 -95.94929736144968,-28.173255684143182 -14.231483827328836,98.98214418809323 100,0" stroke="rgba(0%,0%,0%,1)" stroke-opacity="1" stroke-width="2" stroke-linecap="butt" stroke-linejoin="miter" fill="none" opacity="1" transform="translate(0,0) scale(1,1) rotate(0)" stroke-dashoffset="0" stroke-dasharray=""></polyline></g><polyline id="_unnamed_" points="100,0 41.54150130018864,-90.96319953545184 -65.4860733945285,-75.57495743542584 -95.94929736144975,28.17325568414294 -14.231483827328523,98.98214418809327 84.12535328311812,54.06408174555975 84.12535328311816,-54.06408174555971 -14.231483827328475,-98.98214418809329 -95.94929736144974,-28.17325568414299 -65.48607339452857,75.57495743542577 41.54150130018866,90.96319953545184 100,0" stroke="rgba(0%,0%,0%,1)" stroke-opacity="1" stroke-width="2" stroke-linecap="butt" stroke-linejoin="miter" fill="none" opacity="1" transform="translate(0,0) scale(1,1) rotate(0)" stroke-dashoffset="0" stroke-dasharray=""></polyline></g><polyline id="_unnamed_" points="100,0 84.12535328311812,-54.064081745559754 41.54150130018864,-90.96319953545184 -14.2314838273285,-98.98214418809329 -65.4860733945285,-75.57495743542584 -95.94929736144974,-28.173255684142966 -95.94929736144975,28.17325568414294 -65.48607339452852,75.57495743542582 -14.231483827328523,98.98214418809327 41.54150130018861,90.96319953545185 84.12535328311812,54.06408174555975 100,0" stroke="rgba(0%,0%,0%,1)" stroke-opacity="1" stroke-width="2" stroke-linecap="butt" stroke-linejoin="miter" fill="none" opacity="1" transform="translate(0,0) scale(1,1) rotate(0)" stroke-dashoffset="0" stroke-dasharray=""></polyline></g></svg>
