<svg width="310.7081920079592" height="103" version="1.1"><g id="_unnamed_" transform="translate(44.80127018922194,51.5) scale(1,1) rotate(0)"><g id="_unnamed_" transform="translate(49.80127018922192,0) scale(1,1) rotate(0)"><g id="_unnamed_" transform="translate(56.5,0) scale(1,1) rotate(0)"><g id="_unnamed_" transform="translate(56.5,0) scale(1,1) rotate(0)"><g id="_unnamed_" transform="translate(54.052825814757675,0) scale(1,1) rotate(0)"><rect id="_unnamed_" rx="0" ry="0" width="0" height="0" x="0" y="0" fill="none" fill-opacity="0" stroke="none" stroke-opacity="0" stroke-width="0" stroke-linecap="butt" stroke-linejoin="miter" opacity="1" transform="translate(49.05282581475768,0) scale(1,1) rotate(0)" stroke-dashoffset="0" stroke-dasharray=""></rect><polygon id="_unnamed_" points="3.061616997868383e-15,-50 -47.552825814757675,-15.450849718747376 -29.38926261462366,40.450849718747364 29.389262614623647,40.45084971874738 47.55282581475768,-15.450849718747358 1.5308084989341916e-14,-50" fill="rgba(54.12%,88.63%,20.39%,1)" fill-opacity="1" stroke="rgba(44.71%,62.35%,81.18%,1)" stroke-opacity="1" stroke-width="3" stroke-linecap="butt" stroke-linejoin="miter" opacity="1" transform="translate(0,0) scale(1,1) rotate(0)" stroke-dashoffset="0" stroke-dasharray=""></polygon></g><rect id="_unnamed_" rx="0" ry="0" width="10" height="0" x="-5" y="0" fill="none" fill-opacity="0" stroke="none" stroke-opacity="0" stroke-width="0" stroke-linecap="butt" stroke-linejoin="miter" opacity="1" transform="translate(0,0) scale(1,1) rotate(0)" stroke-dashoffset="0" stroke-dasharray=""></rect></g><polygon id="_unnamed_" points="3.061616997868383e-15,-50 -50,-6.123233995736766e-15 -9.184850993605149e-15,50 50,1.2246467991473532e-14 1.5308084989341916e-14,-50" fill="rgba(54.12%,88.63%,20.39%,1)" fill-opacity="1" stroke="rgba(44.71%,62.35%,81.18%,1)" stroke-opacity="1" stroke-width="3" stroke-linecap="butt" stroke-linejoin="miter" opacity="1" transform="translate(0,0) scale(1,1) rotate(0)" stroke-dashoffset="0" stroke-dasharray=""></polygon></g><rect id="_unnamed_" rx="0" ry="0" width="10" height="0" x="-5" y="0" fill="none" fill-opacity="0" stroke="none" stroke-opacity="0" stroke-width="0" stroke-linecap="butt" stroke-linejoin="miter" opacity="1" transform="translate(0,0) scale(1,1) rotate(0)" stroke-dashoffset="0" stroke-dasharray=""></rect></g><polygon id="_unnamed_" points="3.061616997868383e-15,-50 -43.30127018922194,24.999999999999986 43.30127018922192,25.00000000000002 1.5308084989341916e-14,-50" fill="rgba(54.12%,88.63%,20.39%,1)" fill-opacity="1" stroke="rgba(44.71%,62.35%,81.18%,1)" stroke-opacity="1" stroke-width="3" stroke-linecap="butt" stroke-linejoin="miter" opacity="1" transform="translate(0,0) scale(1,1) rotate(0)" stroke-dashoffset="0" stroke-dasharray=""></polygon></g></svg>
