<svg width="382.5" height="42.5" version="1.1"><g id="_unnamed_" transform="translate(21.25,21.25) scale(1,1) rotate(0)"><g id="_unnamed_" transform="translate(42.5,0) scale(1,1) rotate(0)"><rect id="_unnamed_" rx="0" ry="0" width="0" height="0" x="0" y="0" fill="none" fill-opacity="0" stroke="none" stroke-opacity="0" stroke-width="0" stroke-linecap="butt" stroke-linejoin="miter" opacity="1" transform="translate(318.75,0) scale(1,1) rotate(0)" stroke-dashoffset="0" stroke-dasharray=""></rect><g id="_unnamed_" transform="translate(0,0) scale(1,1) rotate(0)"><g id="_unnamed_" transform="translate(42.5,0) scale(1,1) rotate(0)"><rect id="_unnamed_" rx="0" ry="0" width="0" height="0" x="0" y="0" fill="none" fill-opacity="0" stroke="none" stroke-opacity="0" stroke-width="0" stroke-linecap="butt" stroke-linejoin="miter" opacity="1" transform="translate(276.25,0) scale(1,1) rotate(0)" stroke-dashoffset="0" stroke-dasharray=""></rect><g id="_unnamed_" transform="translate(0,0) scale(1,1) rotate(0)"><g id="_unnamed_" transform="translate(42.5,0) scale(1,1) rotate(0)"><rect id="_unnamed_" rx="0" ry="0" width="0" height="0" x="0" y="0" fill="none" fill-opacity="0" stroke="none" stroke-opacity="0" stroke-width="0" stroke-linecap="butt" stroke-linejoin="miter" opacity="1" transform="translate(233.75,0) scale(1,1) rotate(0)" stroke-dashoffset="0" stroke-dasharray=""></rect><g id="_unnamed_" transform="translate(0,0) scale(1,1) rotate(0)"><g id="_unnamed_" transform="translate(42.5,0) scale(1,1) rotate(0)"><rect id="_unnamed_" rx="0" ry="0" width="0" height="0" x="0" y="0" fill="none" fill-opacity="0" stroke="none" stroke-opacity="0" stroke-width="0" stroke-linecap="butt" stroke-linejoin="miter" opacity="1" transform="translate(191.25,0) scale(1,1) rotate(0)" stroke-dashoffset="0" stroke-dasharray=""></rect><g id="_unnamed_" transform="translate(0,0) scale(1,1) rotate(0)"><g id="_unnamed_" transform="translate(42.5,0) scale(1,1) rotate(0)"><rect id="_unnamed_" rx="0" ry="0" width="0" height="0" x="0" y="0" fill="none" fill-opacity="0" stroke="none" stroke-opacity="0" stroke-width="0" stroke-linecap="butt" stroke-linejoin="miter" opacity="1" transform="translate(148.75,0) scale(1,1) rotate(0)" stroke-dashoffset="0" stroke-dasharray=""></rect><g id="_unnamed_" transform="translate(0,0) scale(1,1) rotate(0)"><g id="_unnamed_" transform="translate(42.5,0) scale(1,1) rotate(0)"><rect id="_unnamed_" rx="0" ry="0" width="0" height="0" x="0" y="0" fill="none" fill-opacity="0" stroke="none" stroke-opacity="0" stroke-width="0" stroke-linecap="butt" stroke-linejoin="miter" opacity="1" transform="translate(106.25,0) scale(1,1) rotate(0)" stroke-dashoffset="0" stroke-dasharray=""></rect><g id="_unnamed_" transform="translate(0,0) scale(1,1) rotate(0)"><g id="_unnamed_" transform="translate(42.5,0) scale(1,1) rotate(0)"><rect id="_unnamed_" rx="0" ry="0" width="0" height="0" x="0" y="0" fill="none" fill-opacity="0" stroke="none" stroke-opacity="0" stroke-width="0" stroke-linecap="butt" stroke-linejoin="miter" opacity="1" transform="translate(63.75,0) scale(1,1) rotate(0)" stroke-dashoffset="0" stroke-dasharray=""></rect><g id="_unnamed_" transform="translate(0,0) scale(1,1) rotate(0)"><g id="_unnamed_" transform="translate(42.5,0) scale(1,1) rotate(0)"><rect id="_unnamed_" rx="0" ry="0" width="0" height="0" x="0" y="0" fill="none" fill-opacity="0" stroke="none" stroke-opacity="0" stroke-width="0" stroke-linecap="butt" stroke-linejoin="miter" opacity="1" transform="translate(21.25,0) scale(1,1) rotate(0)" stroke-dashoffset="0" stroke-dasharray=""></rect><g id="_unnamed_" transform="translate(0,0) scale(1,1) rotate(0)"><g id="_unnamed_" transform="translate(21.25,0) scale(1,1) rotate(0)"><rect id="_unnamed_" rx="0" ry="0" width="0" height="0" x="0" y="0" fill="none" fill-opacity="0" stroke="none" stroke-opacity="0" stroke-width="0" stroke-linecap="butt" stroke-linejoin="miter" opacity="1" transform="translate(0,0) scale(1,1) rotate(0)" stroke-dashoffset="0" stroke-dasharray=""></rect><rect id="_unnamed_" rx="0" ry="0" width="0" height="0" x="0" y="0" fill="none" fill-opacity="0" stroke="none" stroke-opacity="0" stroke-width="0" stroke-linecap="butt" stroke-linejoin="miter" opacity="1" transform="translate(0,0) scale(1,1) rotate(0)" stroke-dashoffset="0" stroke-dasharray=""></rect></g><rect id="_unnamed_" rx="0" ry="0" width="40" height="40" x="-20" y="-20" fill="rgba(64.31%,20.39%,20.64%,1)" fill-opacity="1" stroke="rgba(20.39%,58.34%,64.31%,1)" stroke-opacity="1" stroke-width="2.5" stroke-linecap="butt" stroke-linejoin="miter" opacity="1" transform="translate(0,0) scale(1,1) rotate(0)" stroke-dashoffset="0" stroke-dasharray=""></rect></g></g><rect id="_unnamed_" rx="0" ry="0" width="40" height="40" x="-20" y="-20" fill="rgba(36.25%,20.39%,64.31%,1)" fill-opacity="1" stroke="rgba(42.24%,64.31%,20.39%,1)" stroke-opacity="1" stroke-width="2.5" stroke-linecap="butt" stroke-linejoin="miter" opacity="1" transform="translate(0,0) scale(1,1) rotate(0)" stroke-dashoffset="0" stroke-dasharray=""></rect></g></g><rect id="_unnamed_" rx="0" ry="0" width="40" height="40" x="-20" y="-20" fill="rgba(20.39%,64.31%,21.58%,1)" fill-opacity="1" stroke="rgba(64.31%,20.39%,56.9%,1)" stroke-opacity="1" stroke-width="2.5" stroke-linecap="butt" stroke-linejoin="miter" opacity="1" transform="translate(0,0) scale(1,1) rotate(0)" stroke-dashoffset="0" stroke-dasharray=""></rect></g></g><rect id="_unnamed_" rx="0" ry="0" width="40" height="40" x="-20" y="-20" fill="rgba(64.31%,20.39%,32.97%,1)" fill-opacity="1" stroke="rgba(20.39%,64.31%,57.95%,1)" stroke-opacity="1" stroke-width="2.5" stroke-linecap="butt" stroke-linejoin="miter" opacity="1" transform="translate(0,0) scale(1,1) rotate(0)" stroke-dashoffset="0" stroke-dasharray=""></rect></g></g><rect id="_unnamed_" rx="0" ry="0" width="40" height="40" x="-20" y="-20" fill="rgba(20.39%,27.75%,64.31%,1)" fill-opacity="1" stroke="rgba(64.31%,63.17%,20.39%,1)" stroke-opacity="1" stroke-width="2.5" stroke-linecap="butt" stroke-linejoin="miter" opacity="1" transform="translate(0,0) scale(1,1) rotate(0)" stroke-dashoffset="0" stroke-dasharray=""></rect></g></g><rect id="_unnamed_" rx="0" ry="0" width="40" height="40" x="-20" y="-20" fill="rgba(20.39%,64.31%,29.24%,1)" fill-opacity="1" stroke="rgba(64.31%,20.39%,49.25%,1)" stroke-opacity="1" stroke-width="2.5" stroke-linecap="butt" stroke-linejoin="miter" opacity="1" transform="translate(0,0) scale(1,1) rotate(0)" stroke-dashoffset="0" stroke-dasharray=""></rect></g></g><rect id="_unnamed_" rx="0" ry="0" width="40" height="40" x="-20" y="-20" fill="rgba(50.67%,64.31%,20.39%,1)" fill-opacity="1" stroke="rgba(40.25%,20.39%,64.31%,1)" stroke-opacity="1" stroke-width="2.5" stroke-linecap="butt" stroke-linejoin="miter" opacity="1" transform="translate(0,0) scale(1,1) rotate(0)" stroke-dashoffset="0" stroke-dasharray=""></rect></g></g><rect id="_unnamed_" rx="0" ry="0" width="40" height="40" x="-20" y="-20" fill="rgba(63.62%,20.39%,64.31%,1)" fill-opacity="1" stroke="rgba(20.39%,64.31%,25.92%,1)" stroke-opacity="1" stroke-width="2.5" stroke-linecap="butt" stroke-linejoin="miter" opacity="1" transform="translate(0,0) scale(1,1) rotate(0)" stroke-dashoffset="0" stroke-dasharray=""></rect></g></g><rect id="_unnamed_" rx="0" ry="0" width="40" height="40" x="-20" y="-20" fill="rgba(20.39%,39.61%,64.31%,1)" fill-opacity="1" stroke="rgba(64.31%,51.32%,20.39%,1)" stroke-opacity="1" stroke-width="2.5" stroke-linecap="butt" stroke-linejoin="miter" opacity="1" transform="translate(0,0) scale(1,1) rotate(0)" stroke-dashoffset="0" stroke-dasharray=""></rect></g></svg>
