<svg width="200" height="40" version="1.1"><g id="_unnamed_" transform="translate(20,20) scale(1,1) rotate(0)"><g id="_unnamed_" transform="translate(40,0) scale(1,1) rotate(0)"><rect id="_unnamed_" rx="0" ry="0" width="0" height="0" x="0" y="0" fill="none" fill-opacity="0" stroke="none" stroke-opacity="0" stroke-width="0" stroke-linecap="butt" stroke-linejoin="miter" opacity="1" transform="translate(140,0) scale(1,1) rotate(0)" stroke-dashoffset="0" stroke-dasharray=""></rect><g id="_unnamed_" transform="translate(0,0) scale(1,1) rotate(0)"><g id="_unnamed_" transform="translate(40,0) scale(1,1) rotate(0)"><rect id="_unnamed_" rx="0" ry="0" width="0" height="0" x="0" y="0" fill="none" fill-opacity="0" stroke="none" stroke-opacity="0" stroke-width="0" stroke-linecap="butt" stroke-linejoin="miter" opacity="1" transform="translate(100,0) scale(1,1) rotate(0)" stroke-dashoffset="0" stroke-dasharray=""></rect><g id="_unnamed_" transform="translate(0,0) scale(1,1) rotate(0)"><g id="_unnamed_" transform="translate(40,0) scale(1,1) rotate(0)"><rect id="_unnamed_" rx="0" ry="0" width="0" height="0" x="0" y="0" fill="none" fill-opacity="0" stroke="none" stroke-opacity="0" stroke-width="0" stroke-linecap="butt" stroke-linejoin="miter" opacity="1" transform="translate(60,0) scale(1,1) rotate(0)" stroke-dashoffset="0" stroke-dasharray=""></rect><g id="_unnamed_" transform="translate(0,0) scale(1,1) rotate(0)"><g id="_unnamed_" transform="translate(40,0) scale(1,1) rotate(0)"><rect id="_unnamed_" rx="0" ry="0" width="0" height="0" x="0" y="0" fill="none" fill-opacity="0" stroke="none" stroke-opacity="0" stroke-width="0" stroke-linecap="butt" stroke-linejoin="miter" opacity="1" transform="translate(20,0) scale(1,1) rotate(0)" stroke-dashoffset="0" stroke-dasharray=""></rect><rect id="_unnamed_" rx="0" ry="0" width="40" height="40" x="-20" y="-20" fill="rgba(91%,49%,89.22%,1)" fill-opacity="1" stroke="none" stroke-opacity="0" stroke-width="0" stroke-linecap="butt" stroke-linejoin="miter" opacity="1" transform="translate(0,0) scale(1,1) rotate(0)" stroke-dashoffset="0" stroke-dasharray=""></rect></g><rect id="_unnamed_" rx="0" ry="0" width="40" height="40" x="-20" y="-20" fill="rgba(61%,49%,91%,1)" fill-opacity="1" stroke="none" stroke-opacity="0" stroke-width="0" stroke-linecap="butt" stroke-linejoin="miter" opacity="1" transform="translate(0,0) scale(1,1) rotate(0)" stroke-dashoffset="0" stroke-dasharray=""></rect></g></g><rect id="_unnamed_" rx="0" ry="0" width="40" height="40" x="-20" y="-20" fill="rgba(49%,59.18%,91%,1)" fill-opacity="1" stroke="none" stroke-opacity="0" stroke-width="0" stroke-linecap="butt" stroke-linejoin="miter" opacity="1" transform="translate(0,0) scale(1,1) rotate(0)" stroke-dashoffset="0" stroke-dasharray=""></rect></g></g><rect id="_unnamed_" rx="0" ry="0" width="40" height="40" x="-20" y="-20" fill="rgba(49%,65.07%,91%,1)" fill-opacity="1" stroke="none" stroke-opacity="0" stroke-width="0" stroke-linecap="butt" stroke-linejoin="miter" opacity="1" transform="translate(0,0) scale(1,1) rotate(0)" stroke-dashoffset="0" stroke-dasharray=""></rect></g></g><rect id="_unnamed_" rx="0" ry="0" width="40" height="40" x="-20" y="-20" fill="rgba(91%,49%,84.92%,1)" fill-opacity="1" stroke="none" stroke-opacity="0" stroke-width="0" stroke-linecap="butt" stroke-linejoin="miter" opacity="1" transform="translate(0,0) scale(1,1) rotate(0)" stroke-dashoffset="0" stroke-dasharray=""></rect></g></svg>
