<svg><g><circle cx="21.507037065146932px" cy="9.7390828657372px" r="1.180468528156617px" fill="rgba(30.39%,85%,15%,0.5)"></circle><g><circle cx="43.07331210742374px" cy="35.3224402278546px" r="2.7852221632905234px" fill="rgba(29%,15%,85%,0.5)"></circle><g><circle cx="24.8429271088586px" cy="21.73528616540019px" r="1.6504497054044833px" fill="rgba(15%,85%,49.22%,0.5)"></circle><g><circle cx="27.003837261658557px" cy="31.042666127131188px" r="2.0572155618302843px" fill="rgba(15%,77.85%,85%,0.5)"></circle><g><circle cx="12.326557135774312px" cy="41.52464397472572px" r="2.1657793447447693px" fill="rgba(15%,66.39%,85%,0.5)"></circle><g><circle cx="20.435286527562177px" cy="27.242234772627697px" r="1.7027479928563487px" fill="rgba(15%,85%,54.74%,0.5)"></circle><g><circle cx="46.05981395571422px" cy="35.97347060329491px" r="2.9221554753645167px" fill="rgba(43.46%,15%,85%,0.5)"></circle><g><circle cx="43.9699370595861px" cy="11.271757104981205px" r="2.2695857955019334px" fill="rgba(15%,55.43%,85%,0.5)"></circle><g><circle cx="18.434610101639656px" cy="47.96376766745579px" r="2.5692206301022265px" fill="rgba(15%,23.8%,85%,0.5)"></circle><g><circle cx="17.12445724909948px" cy="24.149929896568636px" r="1.4802585501234364px" fill="rgba(15%,85%,31.25%,0.5)"></circle><g><circle cx="34.63310766581073px" cy="23.612744245803025px" r="2.0958374444415666px" fill="rgba(15%,73.77%,85%,0.5)"></circle><g><circle cx="31.813242808258845px" cy="36.31196605716595px" r="2.4138357943913693px" fill="rgba(15%,40.2%,85%,0.5)"></circle><g><circle cx="13.558850398092538px" cy="26.203079298242123px" r="1.4751642186785674px" fill="rgba(15%,85%,30.71%,0.5)"></circle><g><circle cx="42.356823284200885px" cy="16.391195541529324px" r="2.2708873651117494px" fill="rgba(15%,55.29%,85%,0.5)"></circle><g><circle cx="20.540829992555125px" cy="41.104174216330165px" r="2.2975415310661274px" fill="rgba(15%,52.48%,85%,0.5)"></circle><g><circle cx="33.30798248695375px" cy="24.459762035615146px" r="2.0662173507342696px" fill="rgba(15%,76.9%,85%,0.5)"></circle><g><circle cx="24.79488166874498px" cy="20.481920699023753px" r="1.6080230350403593px" fill="rgba(15%,85%,44.74%,0.5)"></circle><g><circle cx="21.67249892192468px" cy="15.46389626033823px" r="1.3311924138449418px" fill="rgba(15%,85%,15.52%,0.5)"></circle><g><circle cx="-0.471938576967303px" cy="33.30915117076582px" r="1.6656247159379571px" fill="rgba(15%,85%,50.82%,0.5)"></circle><g><circle cx="40.89331005082816px" cy="21.10713480054872px" r="2.3009638993265944px" fill="rgba(15%,52.12%,85%,0.5)"></circle><g><circle cx="21.262308276014455px" cy="26.383086302363694px" r="1.6942203192488303px" fill="rgba(15%,85%,53.84%,0.5)"></circle><g><circle cx="24.085598056236904px" cy="-0.005342191329285484px" r="1.2042799324343272px" fill="rgba(27.88%,85%,15%,0.5)"></circle><g><circle cx="33.470140462855284px" cy="22.21080864454666px" r="2.0084635441351253px" fill="rgba(15%,82.99%,85%,0.5)"></circle><g><circle cx="32.25512902165542px" cy="17.628969629255813px" r="1.8379158838157295px" fill="rgba(15%,85%,69.01%,0.5)"></circle><g><circle cx="45.34669353772768px" cy="21.265982366716408px" r="2.5042786490455122px" fill="rgba(15%,30.65%,85%,0.5)"></circle><g><circle cx="30.329060719120122px" cy="8.90325550706256px" r="1.5804428831249446px" fill="rgba(15%,85%,41.83%,0.5)"></circle><g><circle cx="42.02634335836518px" cy="41.19649777856366px" r="2.9425180395769903px" fill="rgba(45.6%,15%,85%,0.5)"></circle><g><circle cx="15.534219999702042px" cy="5.957639576946979px" r="0.8318735786283092px" fill="rgba(67.19%,85%,15%,0.5)"></circle><g><circle cx="42.49916876726319px" cy="16.787956673994294px" r="2.284740048230996px" fill="rgba(15%,53.83%,85%,0.5)"></circle><g><circle cx="17.252891965388272px" cy="-4.03369354881726px" r="0.8859076769267908px" fill="rgba(61.49%,85%,15%,0.5)"></circle><g><circle cx="39.33391495891948px" cy="38.44357795547768px" r="2.7500297962087608px" fill="rgba(25.29%,15%,85%,0.5)"></circle><g><circle cx="11.839824097545355px" cy="22.74882519728866px" r="1.2822738421624407px" fill="rgba(19.65%,85%,15%,0.5)"></circle><g><circle cx="20.34486972073382px" cy="18.318358973762656px" r="1.3688279653094308px" fill="rgba(15%,85%,19.49%,0.5)"></circle><g><circle cx="19.79382812071405px" cy="25.152807966475457px" r="1.6003588505947355px" fill="rgba(15%,85%,43.93%,0.5)"></circle><g><circle cx="15.311835945015773px" cy="34.44389942182873px" r="1.884697938257037px" fill="rgba(15%,85%,73.94%,0.5)"></circle><g><circle cx="19.55928519608845px" cy="28.11649628745849px" r="1.7125295624197203px" fill="rgba(15%,85%,55.77%,0.5)"></circle><g><circle cx="26.6617495303425px" cy="15.942582484473178px" r="1.5532343869269614px" fill="rgba(15%,85%,38.96%,0.5)"></circle><g><circle cx="12.355021474693805px" cy="21.739695685692727px" r="1.250260896919791px" fill="rgba(23.03%,85%,15%,0.5)"></circle><g><circle cx="27.603391427090813px" cy="21.92775581788648px" r="1.762649776250266px" fill="rgba(15%,85%,61.06%,0.5)"></circle><g><circle cx="17.503390236667858px" cy="12.002553730660196px" r="1.0611667703929302px" fill="rgba(42.99%,85%,15%,0.5)"></circle><g></g></g></g></g></g></g></g></g></g></g></g></g></g></g></g></g></g></g></g></g></g></g></g></g></g></g></g></g></g></g></g></g></g></g></g></g></g></g></g></g></g></svg>
